<?xml version="1.0" encoding="UTF-8" standalone="no"?>
<!DOCTYPE svg PUBLIC "-//W3C//DTD SVG 1.1//EN" "http://www.w3.org/Graphics/SVG/1.1/DTD/svg11.dtd">
<svg version="1.1" xmlns="http://www.w3.org/2000/svg" xmlns:xlink="http://www.w3.org/1999/xlink" preserveAspectRatio="xMidYMid meet" viewBox="94.98223686329906 3.6029052042645233 304.07814038405735 634.7941895914711" width="300.08" height="630.79"><defs><path d="M218.74 131.64C219.99 138.53 221.51 147.96 221.55 153.2C229.29 157.76 238.46 161.68 247.1 161.68C255.71 161.68 264.87 157.87 272.59 153.46C272.59 148.3 274.12 138.76 275.38 131.75C259.18 130.02 234.92 130 218.74 131.64Z" id="aUC1tW1Pp"></path><linearGradient id="gradientd646RpCT2A" gradientUnits="userSpaceOnUse" x1="247.07" y1="161.01" x2="247.07" y2="130.23"><stop style="stop-color: #daa075;stop-opacity: 0.8" offset="0%"></stop><stop style="stop-color: #bb7440;stop-opacity: 1" offset="70%"></stop></linearGradient><path d="M185.56 103.37C186.19 105.27 188.14 108.95 189.36 110.35C190.86 112.08 193.25 117.56 193.55 118.12C194.01 119.02 194.94 120.31 196.37 120.21C198.36 120.07 200.1 117.83 200.26 116.76C201.09 110.92 196.37 99.25 193.85 94.31C192.88 92.41 189.73 87.23 187.31 87.95C185.35 88.55 185.38 91.78 185.23 93.69C185 96.49 184.93 101.38 185.56 103.37Z" id="b4hQTYrjch"></path><path d="M185.56 103.37C186.19 105.27 188.14 108.95 189.36 110.35C190.86 112.08 193.25 117.56 193.55 118.12C194.01 119.02 194.94 120.31 196.37 120.21C198.36 120.07 200.1 117.83 200.26 116.76C201.09 110.92 196.37 99.25 193.85 94.31C192.88 92.41 189.73 87.23 187.31 87.95C185.35 88.55 185.38 91.78 185.23 93.69C185 96.49 184.93 101.38 185.56 103.37Z" id="a3P5f9kq5T"></path><path d="M308.31 103.37C307.69 105.27 305.72 108.95 304.51 110.35C303.01 112.08 300.62 117.56 300.32 118.12C299.86 119.02 298.93 120.31 297.51 120.21C295.5 120.07 293.78 117.83 293.62 116.76C292.77 110.92 297.51 99.25 300.02 94.31C301 92.41 304.15 87.23 306.55 87.95C308.52 88.55 308.5 91.78 308.65 93.69C308.87 96.49 308.95 101.38 308.31 103.37Z" id="af8cx4ZN7"></path><path d="M308.31 103.37C307.69 105.27 305.72 108.95 304.51 110.35C303.01 112.08 300.62 117.56 300.32 118.12C299.86 119.02 298.93 120.31 297.51 120.21C295.5 120.07 293.78 117.83 293.62 116.76C292.77 110.92 297.51 99.25 300.02 94.31C301 92.41 304.15 87.23 306.55 87.95C308.52 88.55 308.5 91.78 308.65 93.69C308.87 96.49 308.95 101.38 308.31 103.37Z" id="b162iaCW0q"></path><path d="M288.52 134.7C281.81 140.23 263.48 153.98 247.1 153.98C230.4 153.98 211.71 139.32 205.26 133.81C203.75 132.5 202.63 131 201.92 129.36C198.13 120.48 184.93 89.61 184.91 89.58C184.91 89.58 184.91 89.58 184.91 89.58C183.54 85.74 182.82 81.7 182.81 77.55C182.76 51.35 211.41 30.1 246.84 30.06C282.26 30.02 311 51.21 311.05 77.39C311.07 81.55 310.36 85.58 309 89.43C309 89.43 309 89.43 309 89.43C308.99 89.47 296.15 120.43 292.27 129.78C291.52 131.6 290.24 133.28 288.52 134.7Z" id="e1nrjIlSHy"></path><path d="M288.52 134.7C281.81 140.23 263.48 153.98 247.1 153.98C230.4 153.98 211.71 139.32 205.26 133.81C203.75 132.5 202.63 131 201.92 129.36C198.13 120.48 184.93 89.61 184.91 89.58C184.91 89.58 184.91 89.58 184.91 89.58C183.54 85.74 182.82 81.7 182.81 77.55C182.76 51.35 211.41 30.1 246.84 30.06C282.26 30.02 311 51.21 311.05 77.39C311.07 81.55 310.36 85.58 309 89.43C309 89.43 309 89.43 309 89.43C308.99 89.47 296.15 120.43 292.27 129.78C291.52 131.6 290.24 133.28 288.52 134.7Z" id="aBbjz3pOO"></path><path d="M251.84 136.4C250.83 141.56 243.78 140.83 243.1 136.64C244.84 136.59 250.96 136.42 251.84 136.4Z" id="daaxFRlzf"></path><linearGradient id="gradiente1LJhRXLdc" gradientUnits="userSpaceOnUse" x1="247.07" y1="139.83" x2="247.07" y2="136.37"><stop style="stop-color: #e1ac85;stop-opacity: 1" offset="10%"></stop><stop style="stop-color: #daa075;stop-opacity: 1" offset="100%"></stop></linearGradient><path d="M251.97 136.43L251.94 136.51L251.86 136.57L251.74 136.61L250.6 136.76L249.42 136.85L248.21 136.91L247.04 136.93L245.92 136.93L244.88 136.89L243.97 136.85L243.22 136.78L243.1 136.75L243.01 136.69L242.96 136.62L242.96 136.55L243 136.48L243.06 136.41L243.16 136.37L243.31 136.36L243.52 136.38L244.1 136.42L244.96 136.47L246.06 136.51L247.34 136.51L248.73 136.48L250.17 136.37L251.6 136.2L251.74 136.2L251.85 136.23L251.92 136.29L251.97 136.36L251.97 136.43Z" id="dIrv6aEbP"></path><path d="M217.86 98.79C213.99 98.48 208.06 97.16 206.78 92.91C206.24 91.15 212.25 89.85 220.16 90.56C228.09 91.27 233.59 94.81 232.87 96.6C232.47 97.58 221.66 99.09 217.86 98.79Z" id="j3aPY4hZLu"></path><radialGradient id="gradientaTGltHuxh" gradientUnits="userSpaceOnUse" cx="218.88" cy="94.41" dx="183.86" dy="60.18" r="48.97"><stop style="stop-color: #ffffff;stop-opacity: 1" offset="0%"></stop><stop style="stop-color: #fcfdfd;stop-opacity: 1" offset="31.5%"></stop><stop style="stop-color: #f4f7f8;stop-opacity: 1" offset="50.4%"></stop><stop style="stop-color: #e5ecef;stop-opacity: 1" offset="66%"></stop><stop style="stop-color: #d8e2e7;stop-opacity: 1" offset="76%"></stop></radialGradient><path d="M213.62 94.24C213.62 91.69 216.45 89.62 219.95 89.62C223.43 89.62 226.27 91.69 226.27 94.24C226.27 94.24 226.27 94.24 226.27 94.24C224.38 97.31 222.27 98.86 219.95 98.86C216.45 98.86 213.62 96.79 213.62 94.24C213.62 94.24 213.62 94.24 213.62 94.24Z" id="f2DWXHUOEI"></path><path d="M219.95 92.42C221.31 92.42 222.42 93.23 222.42 94.24C222.42 95.24 221.31 96.05 219.95 96.05C218.58 96.05 217.46 95.24 217.46 94.24C217.46 93.23 218.58 92.42 219.95 92.42Z" id="a2l9Qv2OKJ"></path><path d="M232.99 94.48C233.78 95.59 233.08 96.37 232.87 96.54C233.18 94.67 227.77 91.35 220.16 90.68C212.25 90 206.24 91.25 206.78 92.96C208.06 97.08 213.99 98.36 217.86 98.66C222.17 99 230.16 97.47 231.22 97.31C229.11 98.08 223.29 98.92 220.92 99.08C220.14 99.14 218.57 99.16 217.78 99.15C211.51 99.03 207.06 96.7 205.42 93.57C204.37 91.54 205.52 90.12 207.85 89.45C208.77 89.18 212.14 88.68 213.6 88.63C215.38 88.56 218.94 88.72 220.69 88.95C224.24 89.41 230.43 90.86 232.99 94.48Z" id="j5cX1fyCT"></path><path d="M275.88 98.79C279.73 98.48 285.66 97.16 286.95 92.91C287.48 91.15 281.48 89.85 273.55 90.56C265.63 91.27 260.14 94.81 260.86 96.6C261.26 97.58 272.07 99.09 275.88 98.79Z" id="afZxxC5tj"></path><radialGradient id="gradientd53i3AIWh1" gradientUnits="userSpaceOnUse" cx="274.85" cy="94.4" dx="183.86" dy="60.18" r="97.21"><stop style="stop-color: #ffffff;stop-opacity: 1" offset="0%"></stop><stop style="stop-color: #fcfdfd;stop-opacity: 1" offset="31.6%"></stop><stop style="stop-color: #f4f7f8;stop-opacity: 1" offset="50.5%"></stop><stop style="stop-color: #e5ecef;stop-opacity: 1" offset="66.10000000000001%"></stop><stop style="stop-color: #d8e2e7;stop-opacity: 1" offset="76%"></stop></radialGradient><path d="M267.88 94.24C267.88 91.69 270.72 89.62 274.2 89.62C277.69 89.62 280.53 91.69 280.53 94.24C280.53 94.24 280.53 94.24 280.53 94.24C278.63 97.31 276.53 98.86 274.2 98.86C270.72 98.86 267.88 96.79 267.88 94.24C267.88 94.24 267.88 94.24 267.88 94.24Z" id="c1pQCU6Ya"></path><path d="M274.2 92.42C275.57 92.42 276.68 93.23 276.68 94.24C276.68 95.24 275.57 96.05 274.2 96.05C272.84 96.05 271.72 95.24 271.72 94.24C271.72 93.23 272.84 92.42 274.2 92.42Z" id="a1ohuEWLhk"></path><path d="M260.74 94.48C259.94 95.59 260.65 96.37 260.86 96.54C260.55 94.67 265.96 91.35 273.56 90.68C281.48 90 287.48 91.25 286.95 92.96C285.66 97.08 279.73 98.36 275.88 98.66C271.55 99 263.56 97.47 262.51 97.31C264.61 98.08 270.43 98.92 272.8 99.08C273.59 99.14 275.16 99.16 275.94 99.15C282.21 99.03 286.66 96.7 288.31 93.57C289.35 91.54 288.21 90.12 285.88 89.45C284.95 89.18 281.59 88.68 280.13 88.63C278.35 88.56 274.78 88.72 273.03 88.95C269.47 89.41 263.29 90.86 260.74 94.48Z" id="a13jDZ0gIT"></path><path d="M233.38 87.26C218.95 87.07 211.94 79.57 198.61 86.5C209.1 78.81 216.26 81.94 230.83 83.98C231.73 84.11 237.49 85.17 236.43 86.65C235.92 87.37 234.29 87.28 233.38 87.26Z" id="d1Tg05T1f9"></path><path d="M260.77 87.26C275.19 87.07 282.2 79.57 295.54 86.5C285.05 78.81 277.87 81.94 263.3 83.98C262.42 84.11 256.65 85.17 257.72 86.65C258.22 87.37 259.86 87.28 260.77 87.26Z" id="a1Ti5YbBo"></path><path d="M247.12 117.64C244.74 117.63 238.95 116.17 237.71 118.3C236.79 119.89 243.96 121.6 246.69 121.7C249.63 121.82 257.91 119.47 256.5 117.86C255.03 116.17 249.51 117.64 247.12 117.64Z" id="a18yupe8is"></path><path d="M254.64 118.8L255.06 119.1L255.15 119.41L254.91 119.57L254.45 119.55L253.86 119.42L253.21 119.25L252.61 119.12L252.15 119.09L251.66 119.18L251.04 119.35L250.38 119.52L249.77 119.65L249.28 119.66L249.03 119.49L249.09 119.2L249.47 118.91L250.03 118.65L250.69 118.43L251.32 118.28L251.82 118.18L252.5 118.19L253.26 118.32L254 118.53L254.64 118.8Z" id="a4tQ6f56w"></path><path d="M245.12 113.88C245.19 115.04 246.44 115.6 247.16 115.6C247.81 115.6 249.01 115.03 249.06 113.88C249.27 109.25 248.05 95.54 247.16 95.58C246.34 95.63 244.78 109.16 245.12 113.88Z" id="c48Qvz0tLJ"></path><path d="M245.55 119.35L245.95 119.66L246.02 119.97L245.77 120.11L245.32 120.07L244.73 119.93L244.1 119.74L243.5 119.57L243.04 119.52L242.55 119.61L241.91 119.74L241.24 119.89L240.62 119.98L240.14 119.97L239.9 119.8L239.98 119.51L240.38 119.25L240.95 119.01L241.63 118.83L242.28 118.7L242.79 118.63L243.45 118.67L244.21 118.82L244.94 119.05L245.55 119.35Z" id="hqAPDF6Im"></path><path d="M252.68 4.71L254.42 4.78L256.14 4.88L257.86 5.02L259.56 5.16L261.26 5.33L262.95 5.53L264.64 5.74L266.32 5.98L267.99 6.24L269.64 6.52L271.29 6.82L272.93 7.15L274.55 7.5L276.17 7.86L277.76 8.26L279.36 8.66L280.93 9.1L282.5 9.56L284.04 10.02L285.59 10.52L287.11 11.04L288.62 11.58L290.11 12.13L291.6 12.71L293.06 13.3L294.5 13.93L295.93 14.57L297.36 15.22L298.75 15.9L300.14 16.59L301.49 17.32L302.84 18.06L304.17 18.82L305.47 19.58L306.77 20.38L308.04 21.19L309.28 22.03L310.51 22.89L311.7 23.75L312.87 24.62L314.01 25.51L315.13 26.42L316.2 27.33L317.26 28.25L318.28 29.2L319.28 30.15L320.25 31.11L321.19 32.08L322.1 33.07L322.98 34.07L323.83 35.07L324.64 36.09L325.44 37.12L326.19 38.16L326.92 39.21L327.62 40.27L328.28 41.32L328.92 42.4L329.53 43.48L330.09 44.57L330.64 45.67L331.15 46.77L331.62 47.89L332.07 49.01L332.48 50.14L332.87 51.27L333.22 52.41L333.53 53.55L333.81 54.71L334.06 55.87L334.29 57.03L334.46 58.21L334.62 59.38L334.74 60.55L334.82 61.74L334.87 62.92L334.89 64.11L334.87 65.31L334.82 66.49L334.74 67.67L334.62 68.85L334.46 70.02L334.28 71.19L334.06 72.36L333.81 73.51L333.53 74.67L333.22 75.81L332.87 76.96L332.48 78.09L332.07 79.22L331.62 80.34L331.15 81.45L330.64 82.55L330.09 83.65L329.51 84.74L328.92 85.82L328.28 86.9L327.62 87.96L326.92 89.02L326.19 90.07L325.43 91.11L324.64 92.13L323.83 93.15L322.97 94.16L322.1 95.16L321.19 96.14L320.25 97.12L319.28 98.07L318.28 99.03L317.26 99.97L316.2 100.9L315.13 101.81L314.01 102.71L312.87 103.61L311.7 104.48L310.51 105.35L309.28 106.19L309.17 106.27L309.05 106.35L308.94 106.42L308.81 106.49L308.69 106.55L308.56 106.63L308.44 106.69L308.31 106.76L308.19 106.82L308.05 106.88L307.93 106.94L307.79 106.99L307.65 107.05L307.51 107.11L307.38 107.16L307.24 107.21L307.1 107.25L306.95 107.29L306.82 107.34L306.67 107.39L306.52 107.43L306.38 107.46L306.23 107.5L306.08 107.53L305.93 107.56L305.78 107.59L305.62 107.62L305.47 107.65L305.32 107.67L305.17 107.69L305.01 107.71L304.86 107.73L304.7 107.75L304.55 107.76L304.39 107.77L304.22 107.78L304.07 107.79L303.91 107.79L303.75 107.8L303.59 107.8L303.58 107.8L303.54 107.8L303.5 107.8L303.46 107.8L303.43 107.8L303.38 107.79L303.34 107.79L303.29 107.79L303.25 107.79L303.2 107.79L303.16 107.79L303.13 107.79L303.08 107.79L303.06 107.78L302.89 107.78L302.73 107.77L302.55 107.75L302.38 107.74L302.22 107.72L302.04 107.7L301.88 107.67L301.71 107.65L301.54 107.61L301.38 107.58L301.22 107.55L301.06 107.52L300.9 107.48L300.73 107.44L300.57 107.4L300.42 107.35L300.26 107.3L300.11 107.26L299.96 107.21L299.81 107.15L299.66 107.09L299.51 107.04L299.36 106.98L299.23 106.92L299.08 106.86L298.94 106.78L298.8 106.72L298.66 106.65L298.53 106.58L298.4 106.5L298.28 106.43L298.14 106.35L298.02 106.27L297.9 106.19L297.78 106.11L297.67 106.02L297.54 105.93L297.43 105.84L297.32 105.76L297.22 105.66L247.45 61.57L197.68 105.66L197.58 105.76L197.47 105.84L197.35 105.93L197.24 106.02L197.12 106.11L197.01 106.19L196.88 106.27L196.76 106.35L196.63 106.43L196.49 106.5L196.37 106.58L196.23 106.65L196.1 106.72L195.96 106.78L195.82 106.86L195.67 106.92L195.53 106.98L195.38 107.04L195.24 107.09L195.1 107.15L194.94 107.21L194.79 107.26L194.64 107.3L194.47 107.35L194.33 107.4L194.16 107.44L194 107.48L193.84 107.52L193.68 107.55L193.52 107.58L193.35 107.61L193.19 107.65L193.02 107.67L192.85 107.7L192.68 107.72L192.52 107.74L192.34 107.75L192.17 107.77L191.99 107.78L191.82 107.78L191.66 107.79L191.48 107.79L191.31 107.8L191.13 107.8L190.96 107.79L190.79 107.79L190.62 107.78L190.45 107.77L190.27 107.75L190.11 107.74L189.94 107.72L189.78 107.7L189.61 107.68L189.44 107.65L189.28 107.62L189.12 107.59L188.95 107.56L188.79 107.52L188.63 107.49L188.47 107.45L188.32 107.41L188.16 107.36L187.99 107.31L187.84 107.26L187.69 107.22L187.54 107.16L187.4 107.11L187.25 107.05L187.1 106.99L186.96 106.93L186.81 106.87L186.67 106.79L186.53 106.73L186.4 106.66L186.26 106.59L186.12 106.51L186 106.44L185.86 106.36L185.74 106.27L185.61 106.19L183.12 104.43L180.76 102.61L178.52 100.74L176.41 98.83L174.43 96.87L172.57 94.86L170.85 92.83L169.25 90.76L167.78 88.66L166.44 86.52L165.22 84.36L164.14 82.17L163.18 79.96L162.35 77.73L161.64 75.48L161.07 73.23L160.62 70.95L160.3 68.68L160.11 66.4L160.05 64.11L160.11 61.83L160.3 59.54L160.62 57.27L161.07 55L161.64 52.74L162.35 50.49L163.18 48.27L164.14 46.06L165.22 43.87L166.44 41.71L167.78 39.57L169.25 37.46L170.85 35.4L172.57 33.36L174.43 31.36L176.41 29.4L178.52 27.49L180.76 25.62L183.12 23.8L185.61 22.03L186.87 21.19L188.13 20.38L189.43 19.58L190.74 18.82L192.06 18.06L193.4 17.32L194.76 16.59L196.15 15.9L197.54 15.22L198.96 14.57L200.4 13.93L201.84 13.3L203.3 12.71L204.78 12.13L206.28 11.58L207.79 11.04L209.31 10.52L210.85 10.02L212.4 9.56L213.97 9.1L215.54 8.66L217.14 8.26L218.73 7.86L220.35 7.5L221.97 7.15L223.62 6.82L225.26 6.52L226.92 6.24L228.58 5.98L230.26 5.74L231.94 5.53L233.64 5.33L235.33 5.16L237.05 5.02L238.76 4.88L240.49 4.78L242.23 4.71L243.96 4.64L245.7 4.61L247.45 4.6L249.21 4.61L250.94 4.64L252.68 4.71Z" id="aGVzUpoeQ"></path><path d="M263.66 6.89L263.73 6.92L263.78 6.96L263.83 7.01L263.86 7.07L263.89 7.14L263.91 7.21L263.91 7.29L263.93 7.39L263.91 7.49L263.9 7.6L263.88 7.72L263.85 7.85L263.81 7.99L263.76 8.13L263.7 8.29L263.64 8.45L263.55 8.62L263.48 8.81L263.38 8.99L263.28 9.18L263.17 9.38L263.05 9.58L262.94 9.78L262.8 9.99L262.68 10.2L262.53 10.42L262.39 10.63L262.24 10.85L262.08 11.08L261.92 11.3L261.76 11.53L261.58 11.76L261.41 11.98L261.22 12.22L261.05 12.45L260.86 12.68L260.66 12.92L260.47 13.15L260.27 13.39L260.07 13.61L259.88 13.85L259.66 14.08L259.46 14.31L259.25 14.54L259.04 14.76L258.83 14.98L258.62 15.2L258.4 15.42L258.19 15.64L257.97 15.85L257.76 16.05L257.54 16.26L257.32 16.46L257.11 16.66L256.9 16.85L256.68 17.04L256.47 17.22L173.3 87.09L173.19 87.18L173.06 87.29L172.94 87.38L172.82 87.47L172.71 87.57L172.59 87.66L172.48 87.74L172.38 87.83L172.26 87.9L172.15 87.97L172.05 88.04L171.95 88.12L171.85 88.18L171.75 88.24L171.65 88.3L171.57 88.37L171.48 88.42L171.38 88.47L171.29 88.51L171.22 88.56L171.13 88.6L171.05 88.65L170.97 88.68L170.89 88.71L170.82 88.74L170.76 88.77L170.68 88.79L170.62 88.81L170.56 88.83L170.49 88.84L170.43 88.85L170.37 88.86L170.32 88.86L170.27 88.87L170.22 88.87L170.17 88.86L170.12 88.86L170.08 88.85L170.04 88.83L170.01 88.82L169.98 88.81L169.96 88.79L169.94 88.78L169.92 88.76L169.89 88.74L169.88 88.72L169.87 88.7L169.86 88.68L169.85 88.65L169.83 88.63L169.82 88.59L169.81 88.56L169.8 88.53L169.8 88.5L169.78 88.46L169.78 88.43L169.78 88.39L169.78 88.34L169.78 88.31L169.78 88.26L169.78 88.22L169.8 88.18L169.8 88.13L169.81 88.09L169.82 88.03L169.83 87.98L169.85 87.93L169.86 87.88L169.87 87.82L169.89 87.76L169.91 87.7L169.93 87.64L169.94 87.58L169.97 87.51L169.99 87.45L170.02 87.38L170.06 87.32L170.08 87.24L170.12 87.17L170.14 87.1L170.23 86.92L170.33 86.74L170.43 86.54L170.53 86.35L170.64 86.14L170.77 85.95L170.89 85.74L171.03 85.52L171.17 85.31L171.32 85.1L171.47 84.87L171.63 84.65L171.79 84.42L171.95 84.19L172.13 83.96L172.3 83.74L172.48 83.51L172.66 83.27L172.85 83.04L173.04 82.81L173.24 82.57L173.43 82.34L173.63 82.11L173.83 81.88L174.03 81.65L174.25 81.42L174.46 81.19L174.67 80.96L174.88 80.73L175.09 80.52L175.3 80.3L175.52 80.08L175.73 79.87L175.95 79.67L176.16 79.46L176.38 79.26L176.6 79.06L176.81 78.88L177.02 78.69L177.24 78.5L260.4 8.64L260.61 8.47L260.81 8.3L261.01 8.14L261.2 8L261.4 7.86L261.57 7.73L261.75 7.61L261.92 7.5L262.08 7.4L262.24 7.3L262.39 7.22L262.53 7.14L262.67 7.07L262.8 7.01L262.93 6.97L263.04 6.93L263.15 6.9L263.27 6.88L263.35 6.86L263.44 6.86L263.53 6.86L263.6 6.87L263.66 6.89Z" id="c3y9VVZFEN"></path><path d="M267.62 38.86L267.79 38.93L267.99 39L268.19 39.09L268.4 39.21L268.63 39.34L268.86 39.49L269.1 39.64L269.36 39.82L269.62 40.02L269.88 40.23L318.94 79.78L319.22 80.01L319.49 80.25L319.75 80.49L320.03 80.75L320.3 81L320.56 81.26L320.83 81.53L321.09 81.81L321.34 82.09L321.59 82.39L321.84 82.68L322.07 82.97L322.3 83.26L322.52 83.55L322.75 83.84L322.95 84.13L323.14 84.42L323.34 84.71L323.52 84.99L323.68 85.27L323.84 85.55L323.98 85.82L324.12 86.08L324.24 86.34L324.34 86.59L324.43 86.83L324.5 87.06L324.54 87.15L324.57 87.23L324.58 87.33L324.6 87.41L324.62 87.49L324.63 87.57L324.64 87.64L324.64 87.71L324.65 87.78L324.65 87.85L324.65 87.92L324.64 87.98L324.64 88.03L324.63 88.1L324.62 88.15L324.6 88.19L324.58 88.24L324.57 88.28L324.54 88.32L324.52 88.37L324.49 88.4L324.45 88.44L324.43 88.46L324.39 88.49L324.35 88.51L324.32 88.54L324.28 88.55L324.2 88.57L324.14 88.59L324.07 88.6L323.99 88.6L323.92 88.6L323.83 88.6L323.74 88.59L323.64 88.57L323.54 88.55L323.44 88.52L323.34 88.48L323.23 88.44L323.12 88.4L323 88.34L322.88 88.28L322.76 88.22L322.63 88.16L322.5 88.07L322.36 88L322.22 87.91L322.09 87.83L321.95 87.72L321.8 87.62L321.65 87.51L321.49 87.4L321.34 87.28L321.18 87.15L272.13 47.6L271.85 47.37L271.58 47.14L271.32 46.89L271.04 46.64L270.77 46.38L270.51 46.11L270.25 45.84L269.98 45.56L269.73 45.28L269.49 45L269.24 44.71L269 44.42L268.76 44.13L268.54 43.84L268.33 43.55L268.11 43.26L267.92 42.96L267.73 42.67L267.55 42.39L267.38 42.11L267.23 41.83L267.08 41.56L266.96 41.3L266.83 41.04L266.73 40.79L266.63 40.56L266.56 40.33L266.49 40.11L266.46 39.9L266.43 39.73L266.42 39.55L266.42 39.4L266.44 39.27L266.48 39.14L266.53 39.04L266.61 38.96L266.68 38.88L266.78 38.83L266.88 38.79L267.01 38.78L267.14 38.77L267.28 38.78L267.44 38.81L267.62 38.86Z" id="k1aisuVYRm"></path><path d="M296.45 13.44L296.51 13.47L296.56 13.5L296.62 13.55L296.66 13.6L296.7 13.67L296.72 13.74L296.75 13.81L296.76 13.91L296.77 14L296.76 14.11L296.76 14.23L296.73 14.35L296.71 14.48L296.67 14.62L296.63 14.78L296.58 14.93L296.52 15.1L296.46 15.28L296.37 15.45L296.3 15.64L296.21 15.83L296.11 16.02L296.01 16.22L295.9 16.43L295.79 16.64L295.66 16.84L295.54 17.05L295.41 17.27L295.27 17.49L295.12 17.71L294.99 17.93L294.84 18.15L294.68 18.38L294.51 18.61L294.35 18.83L294.19 19.05L294.02 19.28L293.84 19.51L293.67 19.74L293.48 19.97L293.31 20.2L293.12 20.43L292.93 20.65L292.73 20.87L292.54 21.09L292.35 21.32L292.16 21.53L291.96 21.74L291.76 21.95L291.56 22.17L291.36 22.37L291.16 22.57L290.96 22.77L290.76 22.96L290.55 23.15L290.35 23.33L290.15 23.51L196.79 106L196.67 106.11L196.56 106.21L196.44 106.31L196.33 106.4L196.22 106.48L196.12 106.58L196.01 106.66L195.91 106.74L195.81 106.81L195.7 106.89L195.6 106.96L195.51 107.03L195.41 107.09L195.31 107.16L195.22 107.22L195.14 107.28L195.05 107.33L194.96 107.39L194.87 107.43L194.79 107.48L194.71 107.52L194.62 107.56L194.55 107.59L194.47 107.62L194.4 107.66L194.34 107.69L194.26 107.71L194.2 107.73L194.14 107.75L194.08 107.77L194.01 107.78L193.95 107.79L193.9 107.79L193.85 107.8L193.8 107.8L193.75 107.79L193.7 107.79L193.65 107.78L193.61 107.77L193.58 107.76L193.55 107.74L193.53 107.73L193.5 107.72L193.48 107.7L193.45 107.68L193.43 107.66L193.42 107.63L193.4 107.61L193.38 107.59L193.37 107.56L193.35 107.54L193.34 107.51L193.33 107.48L193.32 107.45L193.3 107.42L193.3 107.39L193.29 107.34L193.29 107.31L193.28 107.27L193.28 107.23L193.28 107.19L193.28 107.15L193.28 107.09L193.28 107.05L193.29 107L193.29 106.95L193.3 106.91L193.3 106.85L193.32 106.79L193.33 106.74L193.34 106.68L193.35 106.63L193.38 106.57L193.39 106.5L193.4 106.44L193.43 106.38L193.45 106.31L193.48 106.24L193.49 106.17L193.53 106.1L193.59 105.92L193.66 105.75L193.75 105.56L193.84 105.37L193.93 105.17L194.04 104.98L194.14 104.78L194.26 104.57L194.38 104.36L194.5 104.15L194.64 103.93L194.77 103.71L194.91 103.49L195.06 103.27L195.21 103.05L195.36 102.83L195.52 102.6L195.68 102.37L195.86 102.14L196.03 101.91L196.19 101.69L196.38 101.46L196.56 101.23L196.74 101L196.93 100.77L197.12 100.55L197.3 100.33L197.5 100.11L197.69 99.89L197.89 99.67L198.09 99.45L198.29 99.25L198.49 99.04L198.69 98.83L198.89 98.63L199.09 98.44L199.29 98.24L199.49 98.05L199.68 97.87L199.88 97.69L293.26 15.19L293.45 15.03L293.64 14.86L293.83 14.7L294.02 14.56L294.19 14.42L294.36 14.29L294.54 14.18L294.7 14.06L294.85 13.96L295.01 13.86L295.15 13.78L295.3 13.71L295.42 13.64L295.56 13.57L295.69 13.53L295.8 13.49L295.91 13.45L296.01 13.43L296.11 13.42L296.21 13.41L296.3 13.41L296.37 13.42L296.45 13.44Z" id="b2n2Dp20r"></path><path d="M174.07 318.66C175.28 318.66 175.17 318.92 171.14 324.92C159.94 341.71 153.19 357.27 150.84 371.92C148.18 388.26 146.36 421.29 145.84 462.65C145.61 477.53 145.69 482.49 146.06 485.23C147.05 492.23 146.49 499.23 144.17 508.33C143.61 510.64 141.83 517.39 140.23 523.34C130.38 560.21 123.25 594.65 121.43 613.94C120.91 619.55 121.1 620.68 122.88 621.93C125.91 624.1 138.56 629.03 148.53 631.95C154.07 633.57 160.81 635.06 163.38 635.24C163.53 635.25 164.27 635.3 165.62 635.4C167.83 634.37 169.05 633.79 169.3 633.67C175.02 631.02 210.48 612.76 210.48 612.5C210.48 612.45 210.63 611.28 210.85 609.87C211.8 603.23 212.9 583.13 215.98 516.55C217.71 478.73 217.56 480.11 220.21 473.35C223.28 465.49 237.79 434.97 244.2 422.96C244.38 422.6 244.84 423.25 245.9 425.44C247.39 428.52 251.47 435.65 258.14 446.72C264.59 457.45 266.1 460.74 268.94 470.27C270.15 474.32 270.2 474.44 269.7 476.87C266.24 494.26 264.05 520.76 263.56 550.76C263.25 570.6 263.75 609.04 264.31 610.23C265.68 613.13 276.37 614.14 302.35 613.83C321.72 613.63 331.16 613.18 339.3 612.11C342.75 611.64 345.71 611.18 345.89 611.07C346.23 610.83 345.59 597.18 344.8 588.48C343.77 577.41 342.1 563.66 338.16 533.39C334.99 508.91 334.08 498.42 333.61 481.18C333.2 464.43 332.29 454.79 330.4 446.45C330.09 445.16 329.6 440.76 329.26 436.66C328.35 425.58 326.57 409.05 321.11 360.96C320.5 355.42 319.56 346.91 319.03 342.03C317.9 331.4 317.1 328.66 313.35 322.28C313.2 322 313.35 321.82 313.87 321.71C314.74 321.56 315.43 320.12 315.43 318.32C315.43 315.76 313.5 306.36 312.36 303.44C312.01 302.5 311.9 302.44 310.95 302.6C305.92 303.49 297.77 304.48 297.58 304.25C297.32 303.96 293.49 304.51 290.8 305.22C289.59 305.55 285.99 305.97 278.48 306.65C272.04 307.25 262.31 307.44 253.14 307.17C242.19 306.84 223.97 305.71 223.82 305.34C223.74 305.18 222.11 305.08 219.95 305.08C215.48 305.08 198.28 303.65 196.64 303.15C196.05 302.94 193.99 302.7 192.09 302.63C189.18 302.48 181.8 301.69 179.18 301.27C178.64 301.17 178.2 301.32 177.81 301.74C174.78 304.93 172.81 309.84 172.33 315.34C172.05 318.4 172.21 318.66 174.07 318.66Z" id="b1CcaFhgNu"></path><path d="M99.22 181.74C96.27 183.62 95.21 186.6 96.57 189.29C96.83 189.78 102.57 196.84 109.32 204.98C120.06 217.9 121.79 219.88 123.02 220.74C125.91 222.79 129.87 223.44 133.69 222.49C134.42 222.34 142.25 219.29 151.11 215.72C159.95 212.18 167.26 209.29 167.34 209.29C167.39 209.29 167.48 232.87 167.5 261.7C167.51 265.2 167.54 282.68 167.58 314.14C167.88 314.71 168.04 315.03 168.06 315.09C169.05 316.91 170.95 318.44 173.25 319.25C175.78 320.13 171.28 320.08 245.69 320.08C291.16 320.08 314.87 320.03 315.69 319.92C318.43 319.56 321.3 318.13 322.71 316.42C324.2 314.6 324.1 318.67 324.1 261.28C324.1 215.06 324.15 209.11 324.47 209.18C324.65 209.23 332.06 212.18 340.92 215.72C349.81 219.29 357.65 222.34 358.34 222.51C362.17 223.44 366.13 222.79 369.01 220.74C370.24 219.88 371.97 217.9 382.71 204.98C389.47 196.84 395.21 189.78 395.48 189.29C396.83 186.6 395.77 183.62 392.82 181.74C391.81 181.09 383.32 177.62 356 166.68C336.47 158.85 319.84 152.26 319.07 152.03C318.97 152 318.51 151.86 317.66 151.6C316.15 151.6 308.62 151.6 295.05 151.6C281.48 151.6 273.94 151.6 272.43 151.6C272.14 152.22 271.99 152.55 271.95 152.62C271.39 153.8 270.78 154.18 268.15 154.95C262.98 156.44 255.35 157.22 246.02 157.22C236.68 157.22 229.06 156.44 223.88 154.95C221.26 154.18 220.65 153.8 220.08 152.62C220.05 152.55 219.89 152.22 219.62 151.6C218.13 151.6 210.7 151.59 197.33 151.57L175.08 151.53C174.17 151.75 173.66 151.88 173.56 151.9C163.48 155.78 151.05 160.67 136.27 166.57C108.73 177.61 100.22 181.09 99.22 181.74Z" id="a1D3RWali5"></path><path d="M258.79 53.61L258.99 53.67L259.19 53.76L259.41 53.87L259.64 53.99L259.89 54.13L260.14 54.29L260.4 54.47L260.67 54.67L260.96 54.88L308.67 92.1L308.96 92.33L309.25 92.57L309.53 92.82L309.81 93.08L310.09 93.35L310.37 93.62L310.64 93.9L310.92 94.19L311.18 94.47L311.44 94.77L311.69 95.06L311.93 95.36L312.16 95.65L312.4 95.95L312.61 96.25L312.81 96.55L313.01 96.84L313.2 97.12L313.36 97.41L313.52 97.68L313.67 97.95L313.8 98.22L313.91 98.47L314.01 98.72L314.08 98.94L314.12 99.04L314.15 99.13L314.16 99.21L314.18 99.31L314.2 99.38L314.21 99.46L314.22 99.54L314.22 99.61L314.22 99.68L314.22 99.74L314.22 99.81L314.21 99.87L314.21 99.92L314.2 99.97L314.17 100.02L314.16 100.08L314.13 100.12L314.11 100.16L314.08 100.2L314.05 100.23L314.02 100.26L313.98 100.29L313.95 100.32L313.9 100.34L313.86 100.36L313.8 100.38L313.72 100.4L313.65 100.41L313.56 100.41L313.47 100.41L313.39 100.4L313.29 100.38L313.19 100.36L313.09 100.34L312.97 100.29L312.86 100.25L312.74 100.21L312.61 100.16L312.49 100.1L312.36 100.03L312.23 99.96L312.09 99.88L311.94 99.8L311.8 99.71L311.65 99.61L311.49 99.51L311.34 99.4L311.18 99.29L311.02 99.16L310.84 99.04L263.14 61.81L262.85 61.58L262.57 61.34L262.28 61.09L261.99 60.83L261.72 60.56L261.43 60.29L261.16 60.01L260.9 59.73L260.64 59.44L260.37 59.15L260.12 58.85L259.88 58.56L259.64 58.26L259.41 57.97L259.2 57.67L258.99 57.37L258.79 57.08L258.62 56.79L258.44 56.51L258.28 56.23L258.14 55.96L258.01 55.7L257.89 55.44L257.79 55.21L257.72 54.97L257.66 54.75L257.61 54.54L257.59 54.36L257.58 54.2L257.59 54.04L257.62 53.92L257.67 53.8L257.73 53.71L257.82 53.63L257.91 53.58L258.02 53.53L258.14 53.51L258.29 53.5L258.44 53.52L258.62 53.55L258.79 53.61Z" id="a3H8exN7RQ"></path><path d="M281.54 31.6L281.73 31.66L281.91 31.74L282.11 31.85L282.32 31.96L282.55 32.11L282.79 32.26L283.02 32.44L283.28 32.63L283.55 32.85L326.21 68.91L326.47 69.15L326.73 69.39L327.01 69.64L327.27 69.91L327.53 70.18L327.79 70.45L328.04 70.74L328.29 71.03L328.53 71.32L328.78 71.61L329 71.91L329.23 72.21L329.44 72.51L329.65 72.81L329.84 73.1L330.03 73.4L330.2 73.7L330.36 73.98L330.51 74.26L330.65 74.54L330.77 74.8L330.89 75.06L330.97 75.3L331.05 75.54L331.07 75.64L331.1 75.73L331.12 75.81L331.13 75.9L331.15 75.98L331.16 76.06L331.16 76.14L331.17 76.21L331.17 76.27L331.17 76.34L331.16 76.41L331.16 76.46L331.15 76.52L331.13 76.57L331.11 76.61L331.1 76.66L331.07 76.71L331.05 76.75L331.02 76.78L330.98 76.81L330.96 76.84L330.92 76.86L330.89 76.89L330.85 76.91L330.79 76.93L330.71 76.95L330.64 76.96L330.56 76.96L330.49 76.96L330.4 76.95L330.31 76.92L330.21 76.9L330.11 76.87L330.01 76.83L329.9 76.79L329.79 76.74L329.68 76.69L329.55 76.62L329.43 76.55L329.3 76.48L329.17 76.39L329.03 76.3L328.89 76.21L328.75 76.1L328.6 75.99L328.45 75.88L328.31 75.75L328.16 75.63L285.49 39.57L285.23 39.34L284.95 39.09L284.69 38.84L284.43 38.58L284.17 38.31L283.91 38.03L283.66 37.75L283.41 37.46L283.16 37.17L282.92 36.87L282.7 36.57L282.47 36.27L282.25 35.97L282.05 35.68L281.85 35.38L281.66 35.08L281.49 34.79L281.33 34.5L281.18 34.22L281.04 33.95L280.92 33.68L280.82 33.42L280.72 33.17L280.64 32.94L280.59 32.72L280.55 32.51L280.53 32.33L280.53 32.17L280.54 32.02L280.57 31.89L280.62 31.78L280.68 31.69L280.77 31.62L280.85 31.57L280.97 31.53L281.09 31.52L281.23 31.53L281.38 31.55L281.54 31.6Z" id="c1d68vO5Gb"></path><path d="M291.26 23.4L291.45 23.49L291.65 23.6L291.86 23.73L292.1 23.88L292.33 24.06L292.58 24.27L292.84 24.48L329.95 57.36L330.21 57.6L330.47 57.86L330.75 58.12L331 58.4L331.26 58.69L331.51 58.98L331.76 59.29L332.01 59.59L332.24 59.9L332.47 60.21L332.68 60.52L332.89 60.83L333.09 61.14L333.28 61.46L333.44 61.76L333.6 62.06L333.75 62.35L333.88 62.63L333.99 62.9L334.09 63.16L334.16 63.41L334.19 63.5L334.21 63.59L334.23 63.69L334.24 63.77L334.25 63.85L334.26 63.94L334.26 64.01L334.26 64.08L334.26 64.14L334.26 64.22L334.25 64.27L334.24 64.33L334.23 64.38L334.2 64.42L334.18 64.47L334.15 64.51L334.13 64.55L334.09 64.58L334.06 64.61L334.03 64.63L333.98 64.65L333.91 64.67L333.85 64.68L333.78 64.69L333.7 64.69L333.61 64.68L333.53 64.67L333.43 64.64L333.33 64.61L333.23 64.57L333.12 64.53L333 64.47L332.89 64.4L332.77 64.33L332.64 64.26L332.51 64.16L332.37 64.07L332.23 63.97L332.09 63.86L331.94 63.74L331.8 63.61L331.65 63.48L294.54 30.61L294.28 30.37L294 30.11L293.74 29.84L293.48 29.57L293.22 29.28L292.97 28.99L292.72 28.69L292.48 28.38L292.25 28.08L292.02 27.77L291.8 27.44L291.6 27.13L291.4 26.83L291.21 26.52L291.04 26.22L290.87 25.92L290.74 25.63L290.6 25.35L290.49 25.08L290.4 24.82L290.33 24.57L290.26 24.34L290.23 24.13L290.21 23.94L290.23 23.78L290.25 23.64L290.29 23.52L290.35 23.43L290.44 23.35L290.54 23.31L290.65 23.28L290.77 23.28L290.92 23.29L291.09 23.33L291.26 23.4Z" id="dHaYVwpzN"></path></defs><g><g><use xlink:href="#aUC1tW1Pp" opacity="1" fill="url(#gradientd646RpCT2A)"></use><g><use xlink:href="#aUC1tW1Pp" opacity="1" fill-opacity="0" stroke="#000000" stroke-width="1" stroke-opacity="0"></use></g></g><g><use xlink:href="#b4hQTYrjch" opacity="1" fill="#e9b995" fill-opacity="1"></use><g><use xlink:href="#b4hQTYrjch" opacity="1" fill-opacity="0" stroke="#000000" stroke-width="1" stroke-opacity="0"></use></g></g><g><use xlink:href="#a3P5f9kq5T" opacity="1" fill="#000000" fill-opacity="0"></use><g><use xlink:href="#a3P5f9kq5T" opacity="1" fill-opacity="0" stroke="#bb7440" stroke-width="1" stroke-opacity="1"></use></g></g><g><use xlink:href="#af8cx4ZN7" opacity="1" fill="#e9b995" fill-opacity="1"></use><g><use xlink:href="#af8cx4ZN7" opacity="1" fill-opacity="0" stroke="#000000" stroke-width="1" stroke-opacity="0"></use></g></g><g><use xlink:href="#b162iaCW0q" opacity="1" fill="#000000" fill-opacity="0"></use><g><use xlink:href="#b162iaCW0q" opacity="1" fill-opacity="0" stroke="#bb7440" stroke-width="1" stroke-opacity="1"></use></g></g><g><use xlink:href="#e1nrjIlSHy" opacity="1" fill="#e9b995" fill-opacity="1"></use><g><use xlink:href="#e1nrjIlSHy" opacity="1" fill-opacity="0" stroke="#000000" stroke-width="1" stroke-opacity="0"></use></g></g><g><use xlink:href="#aBbjz3pOO" opacity="1" fill="#000000" fill-opacity="0"></use><g><use xlink:href="#aBbjz3pOO" opacity="1" fill-opacity="0" stroke="#d78040" stroke-width="1" stroke-opacity="1"></use></g></g><g><use xlink:href="#daaxFRlzf" opacity="1" fill="url(#gradiente1LJhRXLdc)"></use><g><use xlink:href="#daaxFRlzf" opacity="1" fill-opacity="0" stroke="#000000" stroke-width="1" stroke-opacity="0"></use></g></g><g><use xlink:href="#dIrv6aEbP" opacity="1" fill="#000000" fill-opacity="0"></use><g><use xlink:href="#dIrv6aEbP" opacity="1" fill-opacity="0" stroke="#bb7440" stroke-width="1" stroke-opacity="1"></use></g></g><g><use xlink:href="#j3aPY4hZLu" opacity="1" fill="url(#gradientaTGltHuxh)"></use><g><use xlink:href="#j3aPY4hZLu" opacity="1" fill-opacity="0" stroke="#000000" stroke-width="1" stroke-opacity="0"></use></g></g><g><use xlink:href="#f2DWXHUOEI" opacity="1" fill="#4e60a3" fill-opacity="1"></use><g><use xlink:href="#f2DWXHUOEI" opacity="1" fill-opacity="0" stroke="#000000" stroke-width="1" stroke-opacity="0"></use></g></g><g><use xlink:href="#a2l9Qv2OKJ" opacity="1" fill="#000000" fill-opacity="1"></use><g><use xlink:href="#a2l9Qv2OKJ" opacity="1" fill-opacity="0" stroke="#000000" stroke-width="1" stroke-opacity="0"></use></g></g><g><use xlink:href="#j5cX1fyCT" opacity="1" fill="#000000" fill-opacity="1"></use><g><use xlink:href="#j5cX1fyCT" opacity="1" fill-opacity="0" stroke="#000000" stroke-width="1" stroke-opacity="0"></use></g></g><g><use xlink:href="#afZxxC5tj" opacity="1" fill="url(#gradientd53i3AIWh1)"></use><g><use xlink:href="#afZxxC5tj" opacity="1" fill-opacity="0" stroke="#000000" stroke-width="1" stroke-opacity="0"></use></g></g><g><use xlink:href="#c1pQCU6Ya" opacity="1" fill="#4e60a3" fill-opacity="1"></use><g><use xlink:href="#c1pQCU6Ya" opacity="1" fill-opacity="0" stroke="#000000" stroke-width="1" stroke-opacity="0"></use></g></g><g><use xlink:href="#a1ohuEWLhk" opacity="1" fill="#000000" fill-opacity="1"></use><g><use xlink:href="#a1ohuEWLhk" opacity="1" fill-opacity="0" stroke="#000000" stroke-width="1" stroke-opacity="0"></use></g></g><g><use xlink:href="#a13jDZ0gIT" opacity="1" fill="#000000" fill-opacity="1"></use><g><use xlink:href="#a13jDZ0gIT" opacity="1" fill-opacity="0" stroke="#000000" stroke-width="1" stroke-opacity="0"></use></g></g><g><use xlink:href="#d1Tg05T1f9" opacity="1" fill="#2a232b" fill-opacity="1"></use><g><use xlink:href="#d1Tg05T1f9" opacity="1" fill-opacity="0" stroke="#000000" stroke-width="1" stroke-opacity="0"></use></g></g><g><use xlink:href="#a1Ti5YbBo" opacity="1" fill="#2a232b" fill-opacity="1"></use><g><use xlink:href="#a1Ti5YbBo" opacity="1" fill-opacity="0" stroke="#000000" stroke-width="1" stroke-opacity="0"></use></g></g><g><use xlink:href="#a18yupe8is" opacity="1" fill="#daa075" fill-opacity="1"></use><g><use xlink:href="#a18yupe8is" opacity="1" fill-opacity="0" stroke="#000000" stroke-width="1" stroke-opacity="0"></use></g></g><g><use xlink:href="#a4tQ6f56w" opacity="1" fill="#bb7440" fill-opacity="1"></use><g><use xlink:href="#a4tQ6f56w" opacity="1" fill-opacity="0" stroke="#000000" stroke-width="1" stroke-opacity="0"></use></g></g><g><use xlink:href="#c48Qvz0tLJ" opacity="1" fill="#daa075" fill-opacity="1"></use><g><use xlink:href="#c48Qvz0tLJ" opacity="1" fill-opacity="0" stroke="#000000" stroke-width="1" stroke-opacity="0"></use></g></g><g><use xlink:href="#hqAPDF6Im" opacity="1" fill="#bb7440" fill-opacity="1"></use><g><use xlink:href="#hqAPDF6Im" opacity="1" fill-opacity="0" stroke="#000000" stroke-width="1" stroke-opacity="0"></use></g></g><g><use xlink:href="#aGVzUpoeQ" opacity="1" fill="#e11736" fill-opacity="1"></use><g><use xlink:href="#aGVzUpoeQ" opacity="1" fill-opacity="0" stroke="#000000" stroke-width="1" stroke-opacity="0"></use></g></g><g><use xlink:href="#c3y9VVZFEN" opacity="1" fill="#f02b7e" fill-opacity="1"></use><g><use xlink:href="#c3y9VVZFEN" opacity="1" fill-opacity="0" stroke="#000000" stroke-width="1" stroke-opacity="0"></use></g></g><g><use xlink:href="#k1aisuVYRm" opacity="1" fill="#f02b7e" fill-opacity="1"></use><g><use xlink:href="#k1aisuVYRm" opacity="1" fill-opacity="0" stroke="#000000" stroke-width="1" stroke-opacity="0"></use></g></g><g><use xlink:href="#b2n2Dp20r" opacity="1" fill="#f02b7e" fill-opacity="1"></use><g><use xlink:href="#b2n2Dp20r" opacity="1" fill-opacity="0" stroke="#000000" stroke-width="1" stroke-opacity="0"></use></g></g><g><use xlink:href="#b1CcaFhgNu" opacity="1" fill="#8cb0c5" fill-opacity="1"></use><g><use xlink:href="#b1CcaFhgNu" opacity="1" fill-opacity="0" stroke="#000000" stroke-width="1" stroke-opacity="0"></use></g></g><g><use xlink:href="#a1D3RWali5" opacity="1" fill="#f7eaea" fill-opacity="1"></use><g><use xlink:href="#a1D3RWali5" opacity="1" fill-opacity="0" stroke="#000000" stroke-width="1" stroke-opacity="0"></use></g></g><g><use xlink:href="#a3H8exN7RQ" opacity="1" fill="#f02b7e" fill-opacity="1"></use><g><use xlink:href="#a3H8exN7RQ" opacity="1" fill-opacity="0" stroke="#000000" stroke-width="1" stroke-opacity="0"></use></g></g><g><use xlink:href="#c1d68vO5Gb" opacity="1" fill="#f02b7e" fill-opacity="1"></use><g><use xlink:href="#c1d68vO5Gb" opacity="1" fill-opacity="0" stroke="#000000" stroke-width="1" stroke-opacity="0"></use></g></g><g><use xlink:href="#dHaYVwpzN" opacity="1" fill="#f02b7e" fill-opacity="1"></use><g><use xlink:href="#dHaYVwpzN" opacity="1" fill-opacity="0" stroke="#000000" stroke-width="1" stroke-opacity="0"></use></g></g></g></svg>