<?xml version="1.0" encoding="UTF-8" standalone="no"?>
<!DOCTYPE svg PUBLIC "-//W3C//DTD SVG 1.1//EN" "http://www.w3.org/Graphics/SVG/1.1/DTD/svg11.dtd">
<svg version="1.1" xmlns="http://www.w3.org/2000/svg" xmlns:xlink="http://www.w3.org/1999/xlink" preserveAspectRatio="xMidYMid meet" viewBox="79.46590999723546 1.1673089998792592 342.41241232383595 431.4976910001208" width="338.41" height="427.5"><defs><path d="M310.55 402.98C310.55 386.22 314.18 355.22 317.18 332.47C278.72 326.85 221.17 326.77 182.77 332.09C185.72 354.49 189.33 385.1 189.44 402.14C207.8 416.92 229.56 429.67 250.05 429.67C270.51 429.67 292.23 417.31 310.55 402.98Z" id="b35eX9opvH"></path><linearGradient id="gradientabwuSgaNT" gradientUnits="userSpaceOnUse" x1="250" y1="427.5" x2="250" y2="327.5"><stop style="stop-color: #daa075;stop-opacity: 0.8" offset="0%"></stop><stop style="stop-color: #bb7440;stop-opacity: 1" offset="70%"></stop></linearGradient><path d="M89.1 190.22C81.57 192.15 81.67 202.65 81.08 208.86C80.23 217.97 79.93 233.84 82.4 240.28C84.78 246.46 92.3 258.41 96.97 262.97C102.72 268.56 111.89 286.37 113.02 288.21C114.8 291.13 118.37 295.31 123.84 294.98C131.51 294.52 138.14 287.26 138.75 283.77C142 264.8 123.84 226.88 114.18 210.86C110.47 204.71 98.36 187.86 89.1 190.22Z" id="a1dwVAMOZ"></path><path d="M88.27 200L88.44 200.02L88.61 200.04L88.78 200.07L88.96 200.1L89.14 200.14L89.33 200.19L89.51 200.24L89.7 200.3L90.17 200.46L90.62 200.64L91.08 200.84L91.52 201.07L91.97 201.31L92.41 201.57L92.84 201.84L93.27 202.14L93.69 202.45L94.11 202.77L94.52 203.11L94.93 203.47L95.33 203.84L95.72 204.22L96.11 204.61L96.5 205.01L96.88 205.43L97.25 205.85L97.62 206.29L97.98 206.73L98.34 207.18L98.69 207.64L99.03 208.1L99.37 208.57L99.7 209.04L100.02 209.52L100.34 210L100.66 210.49L100.96 210.98L101.26 211.47L101.56 211.96L101.84 212.45L102.13 212.94L102.4 213.43L102.67 213.91L102.93 214.4L103.18 214.88L103.43 215.36L103.67 215.83L103.9 216.3L104.1 216.71L104.31 217.13L104.52 217.58L104.73 218.04L104.95 218.51L105.17 218.99L105.4 219.49L105.62 219.99L105.85 220.51L106.08 221.04L106.31 221.57L106.54 222.11L106.77 222.66L107 223.22L107.23 223.78L107.46 224.34L107.68 224.91L107.91 225.48L108.13 226.05L108.34 226.62L108.56 227.19L108.77 227.76L108.97 228.33L109.17 228.89L109.37 229.45L109.56 230.01L109.74 230.56L109.92 231.1L110.08 231.64L110.25 232.17L110.4 232.69L110.54 233.2L110.68 233.7L110.81 234.19L110.92 234.66L111.03 235.13L111.12 235.57L111.21 236.01L111.28 236.42L111.34 236.83L111.35 236.93L111.36 237.04L111.37 237.15L111.38 237.26L111.39 237.37L111.39 237.49L111.4 237.61L111.4 237.73L111.4 237.85L111.4 237.97L111.39 238.1L111.39 238.22L111.38 238.35L111.38 238.48L111.37 238.61L111.36 238.75L111.35 238.88L111.34 239.02L111.32 239.15L111.31 239.29L111.29 239.43L111.28 239.57L111.26 239.72L111.24 239.86L111.23 240L111.21 240.15L111.19 240.3L111.17 240.44L111.14 240.59L111.12 240.74L111.1 240.89L111.08 241.05L111.06 241.2L111.03 241.35L111.01 241.5L110.98 241.66L110.96 241.81L110.93 241.97L110.91 242.12L110.89 242.28L110.86 242.45L110.83 242.62L110.8 242.8L110.78 242.97L110.75 243.14L110.72 243.31L110.7 243.48L110.67 243.66L110.64 243.83L110.62 244L110.6 244.17L110.57 244.34L110.55 244.5L110.53 244.67L110.51 244.84L110.49 245L110.47 245.17L110.45 245.33L110.44 245.49L110.42 245.65L110.41 245.8L110.39 245.96L110.38 246.11L110.38 246.27L110.37 246.42L110.36 246.56L110.36 246.71L110.36 246.85L110.36 246.99L110.36 247.13L110.36 247.27L110.37 247.4L110.38 247.53L110.39 247.66L110.4 247.78L110.41 247.9L110.43 248.02L110.45 248.13L110.47 248.25L110.5 248.35L110.54 248.52L110.58 248.7L110.62 248.89L110.66 249.08L110.7 249.29L110.74 249.5L110.78 249.72L110.82 249.95L110.87 250.19L110.91 250.43L110.95 250.68L111 250.93L111.05 251.18L111.09 251.44L111.14 251.71L111.2 251.97L111.25 252.24L111.31 252.52L111.37 252.79L111.43 253.07L111.49 253.34L111.56 253.62L111.63 253.9L111.71 254.17L111.79 254.45L111.87 254.72L111.96 254.99L112.05 255.26L112.14 255.52L112.24 255.79L112.35 256.04L112.46 256.3L112.57 256.55L112.7 256.79L112.82 257.03L112.95 257.26L113.09 257.48L113.24 257.7L113.39 257.9L113.54 258.1L113.71 258.3L113.87 258.5L114.03 258.7L114.19 258.9L114.35 259.09L114.51 259.29L114.66 259.49L114.82 259.68L114.98 259.88L115.13 260.07L115.28 260.26L115.43 260.45L115.58 260.65L115.72 260.84L115.87 261.03L116.01 261.22L116.15 261.4L116.29 261.59L116.42 261.78L116.55 261.96L116.68 262.15L116.81 262.33L116.93 262.52L117.05 262.7L117.16 262.88L117.28 263.06L117.39 263.24L117.49 263.42L117.59 263.6L117.69 263.78L117.79 263.95L117.88 264.13L117.96 264.3L118.04 264.48L118.12 264.65L118.19 264.82L118.26 264.99L118.32 265.16L118.38 265.33L118.44 265.5L118.45 265.56L118.47 265.62L118.48 265.68L118.5 265.75L118.51 265.82L118.52 265.89L118.54 265.96L118.55 266.04L118.56 266.12L118.57 266.2L118.58 266.29L118.58 266.37L118.59 266.46L118.6 266.55L118.61 266.64L118.61 266.73L118.62 266.82L118.62 266.92L118.63 267.01L118.63 267.11L118.64 267.21L118.64 267.3L118.64 267.4L118.64 267.5L118.65 267.6L118.65 267.71L118.65 267.81L118.65 267.91L118.65 268.01L118.65 268.11L118.65 268.21L118.65 268.32L118.64 268.42L118.64 268.52L118.64 268.62L118.64 268.72L118.64 268.82L118.63 268.91L118.63 269.01L118.63 269.11L118.62 269.18L118.62 269.26L118.62 269.33L118.61 269.4L118.6 269.47L118.6 269.53L118.59 269.6L118.58 269.66L118.57 269.72L118.56 269.78L118.55 269.83L118.54 269.88L118.53 269.94L118.52 269.98L118.5 270.03L118.49 270.08L118.48 270.12L118.46 270.16L118.45 270.2L118.43 270.24L118.42 270.27L118.4 270.31L118.38 270.34L118.37 270.37L118.35 270.39L118.33 270.42L118.32 270.44L118.3 270.46L118.28 270.48L118.26 270.5L118.24 270.52L118.22 270.53L118.2 270.54L118.19 270.55L118.17 270.56L118.15 270.57L118.13 270.57L118.11 270.57L118.09 270.58L118.07 270.58L118.05 270.57L118.03 270.57L118.01 270.56L118 270.56L117.98 270.55L117.96 270.53L117.95 270.52L117.93 270.51L117.92 270.49L117.9 270.47L117.89 270.45L117.87 270.43L117.86 270.41L117.85 270.38L117.83 270.35L117.82 270.32L117.81 270.29L117.8 270.26L117.79 270.23L117.78 270.19L117.77 270.15L117.76 270.11L117.75 270.07L117.74 270.02L117.74 269.97L117.73 269.93L117.72 269.88L117.72 269.82L117.71 269.77L117.71 269.71L117.71 269.65L117.7 269.59L117.7 269.53L117.7 269.46L117.7 269.4L117.7 269.33L117.7 269.26L117.7 269.19L117.7 269.11L117.7 269.03L117.7 268.97L117.7 268.91L117.71 268.85L117.71 268.79L117.71 268.73L117.71 268.67L117.71 268.61L117.71 268.54L117.71 268.48L117.71 268.42L117.71 268.36L117.72 268.3L117.72 268.24L117.72 268.17L117.72 268.11L117.72 268.05L117.72 267.99L117.72 267.93L117.72 267.87L117.72 267.81L117.72 267.75L117.72 267.69L117.72 267.63L117.71 267.57L117.71 267.51L117.71 267.45L117.71 267.39L117.71 267.33L117.71 267.28L117.71 267.22L117.7 267.16L117.7 267.11L117.7 267.05L117.7 267L117.69 266.94L117.69 266.89L117.69 266.84L117.68 266.78L117.68 266.73L117.68 266.68L117.64 266.71L117.61 266.74L117.57 266.77L117.53 266.79L117.49 266.82L117.45 266.85L117.41 266.88L117.37 266.9L117.33 266.93L117.29 266.95L117.25 266.98L117.21 267L117.16 267.03L117.12 267.05L117.07 267.07L117.03 267.1L116.98 267.12L116.93 267.14L116.89 267.16L116.84 267.18L116.79 267.2L116.74 267.22L116.69 267.23L116.64 267.25L116.59 267.27L116.53 267.28L116.48 267.3L116.43 267.31L116.37 267.32L116.32 267.33L116.26 267.34L116.2 267.35L116.14 267.36L116.09 267.37L116.03 267.38L115.97 267.38L115.91 267.38L115.85 267.39L115.78 267.39L115.72 267.39L115.68 267.39L115.65 267.39L115.61 267.39L115.57 267.39L115.53 267.38L115.5 267.38L115.46 267.38L115.42 267.38L115.38 267.37L115.34 267.37L115.3 267.37L115.26 267.36L115.22 267.36L115.19 267.35L115.15 267.34L115.11 267.34L115.06 267.33L115.02 267.32L114.98 267.31L114.94 267.3L114.9 267.3L114.86 267.29L114.82 267.28L114.78 267.27L114.73 267.25L114.69 267.24L114.65 267.23L114.61 267.22L114.56 267.21L114.52 267.19L114.48 267.18L114.43 267.16L114.39 267.15L114.34 267.13L114.3 267.12L114.25 267.1L114.21 267.08L114.16 267.06L114.12 267.04L114.07 267.02L113.86 266.92L113.65 266.81L113.46 266.69L113.28 266.57L113.12 266.43L112.96 266.28L112.82 266.13L112.69 265.97L112.57 265.81L112.46 265.64L112.35 265.46L112.26 265.28L112.17 265.09L112.1 264.9L112.02 264.71L111.96 264.51L111.9 264.31L111.85 264.11L111.8 263.91L111.75 263.71L111.71 263.5L111.68 263.3L111.64 263.1L111.61 262.89L111.58 262.69L111.55 262.49L111.52 262.3L111.5 262.1L111.47 261.91L111.44 261.73L111.41 261.54L111.38 261.37L111.35 261.19L111.31 261.03L111.27 260.87L111.22 260.71L111.18 260.57L111.12 260.43L111.06 260.3L111 260.18L110.94 260.08L110.88 259.98L110.82 259.88L110.76 259.78L110.71 259.69L110.65 259.59L110.59 259.49L110.53 259.4L110.47 259.31L110.41 259.21L110.35 259.12L110.29 259.03L110.22 258.94L110.16 258.85L110.1 258.76L110.03 258.67L109.96 258.59L109.89 258.5L109.82 258.42L109.75 258.33L109.67 258.25L109.6 258.17L109.52 258.09L109.44 258.01L109.35 257.93L109.27 257.86L109.18 257.78L109.09 257.71L108.99 257.63L108.9 257.56L108.8 257.49L108.69 257.42L108.59 257.35L108.48 257.29L108.36 257.22L108.24 257.16L108.12 257.09L108 257.03L107.87 256.97L107.74 256.91L107.48 256.8L107.21 256.67L106.92 256.54L106.61 256.38L106.29 256.22L105.96 256.05L105.61 255.86L105.25 255.66L104.88 255.46L104.51 255.24L104.12 255.01L103.73 254.78L103.33 254.53L102.93 254.28L102.53 254.02L102.12 253.75L101.72 253.48L101.31 253.2L100.91 252.92L100.51 252.62L100.11 252.33L99.72 252.03L99.33 251.73L98.96 251.42L98.59 251.11L98.23 250.79L97.88 250.48L97.55 250.16L97.22 249.85L96.92 249.53L96.62 249.21L96.35 248.89L96.09 248.57L95.86 248.26L95.64 247.94L95.45 247.63L95.28 247.32L95.13 247.01L95.01 246.71L94.91 246.4L94.71 245.59L94.57 244.77L94.48 243.94L94.43 243.1L94.44 242.26L94.48 241.42L94.56 240.57L94.69 239.73L94.84 238.88L95.04 238.04L95.26 237.2L95.51 236.36L95.79 235.53L96.09 234.71L96.42 233.89L96.76 233.09L97.12 232.3L97.5 231.52L97.89 230.75L98.28 230L98.69 229.27L99.1 228.55L99.52 227.86L99.93 227.18L100.34 226.53L100.75 225.9L101.16 225.29L101.55 224.72L101.93 224.16L102.3 223.64L102.66 223.15L102.99 222.69L103.31 222.26L103.6 221.87L103.87 221.51L104.11 221.19L104.32 220.91L104.5 220.66L104.64 220.46L104.75 220.3L104.7 220.2L104.66 220.1L104.61 220.01L104.57 219.91L104.52 219.81L104.48 219.71L104.44 219.62L104.39 219.52L104.35 219.43L104.31 219.33L104.26 219.24L104.22 219.14L104.18 219.05L104.13 218.95L104.09 218.86L104.05 218.77L104.01 218.68L103.96 218.59L103.92 218.49L103.88 218.4L103.84 218.31L103.8 218.22L103.75 218.14L103.71 218.05L103.67 217.96L103.63 217.87L103.59 217.79L103.55 217.7L103.51 217.61L103.47 217.53L103.43 217.45L103.39 217.36L103.35 217.28L103.31 217.2L103.27 217.11L103.23 217.03L103.19 216.95L103.15 216.87L103.11 216.79L103.07 216.71L103.02 216.61L102.97 216.51L102.92 216.41L102.87 216.31L102.82 216.2L102.76 216.1L102.71 215.99L102.65 215.89L102.6 215.78L102.54 215.67L102.49 215.56L102.43 215.45L102.37 215.34L102.31 215.23L102.25 215.12L102.19 215L102.13 214.89L102.07 214.78L102.01 214.66L101.95 214.55L101.88 214.43L101.82 214.31L101.75 214.2L101.69 214.08L101.62 213.96L101.56 213.84L101.49 213.72L101.42 213.6L101.35 213.48L101.28 213.36L101.21 213.24L101.14 213.12L101.07 212.99L101 212.87L100.93 212.75L100.86 212.62L100.78 212.5L100.71 212.38L100.63 212.25L100.56 212.13L100.39 212.42L100.19 212.76L99.95 213.14L99.68 213.57L99.39 214.04L99.06 214.55L98.71 215.1L98.34 215.69L97.94 216.31L97.53 216.96L97.11 217.65L96.67 218.37L96.22 219.12L95.76 219.89L95.3 220.69L94.84 221.51L94.37 222.36L93.9 223.22L93.44 224.1L92.99 225L92.54 225.91L92.1 226.84L91.68 227.78L91.27 228.72L90.88 229.67L90.51 230.63L90.17 231.6L89.85 232.56L89.55 233.53L89.29 234.49L89.06 235.45L88.86 236.41L88.7 237.36L88.58 238.3L88.5 239.23L88.46 240.15L88.48 241.06L88.54 241.95L88.65 242.83L88.81 243.68L89.02 244.49L89.28 245.31L89.58 246.14L89.93 246.97L90.31 247.82L90.74 248.68L91.21 249.54L91.71 250.4L92.24 251.27L92.8 252.14L93.39 253.02L94 253.89L94.63 254.76L95.29 255.62L95.96 256.49L96.65 257.34L97.34 258.19L98.05 259.03L98.77 259.87L99.49 260.69L100.21 261.5L100.94 262.29L101.66 263.07L102.37 263.83L103.08 264.58L103.78 265.31L104.47 266.01L105.14 266.7L105.79 267.36L106.43 268L107.04 268.62L107.63 269.2L108.19 269.76L108.72 270.29L109.22 270.79L109.69 271.25L110.12 271.69L110.51 272.09L110.86 272.45L111.16 272.77L111.21 272.83L111.26 272.89L111.31 272.94L111.36 273L111.41 273.06L111.45 273.11L111.5 273.17L111.54 273.22L111.59 273.28L111.63 273.33L111.67 273.39L111.71 273.44L111.74 273.49L111.78 273.54L111.81 273.6L111.85 273.65L111.88 273.69L111.91 273.74L111.94 273.79L111.96 273.84L111.99 273.88L112.01 273.93L112.03 273.97L112.05 274.01L112.07 274.05L112.09 274.09L112.1 274.13L112.11 274.16L112.12 274.2L112.13 274.23L112.14 274.26L112.14 274.29L112.15 274.32L112.15 274.35L112.15 274.37L112.14 274.4L112.14 274.42L112.13 274.44L112.12 274.45L112.11 274.47L112.09 274.48L112.08 274.49L112.06 274.5L112.04 274.5L112.02 274.51L111.99 274.51L111.97 274.51L111.94 274.5L111.91 274.5L111.88 274.49L111.85 274.48L111.81 274.47L111.78 274.46L111.74 274.44L111.7 274.43L111.66 274.41L111.62 274.38L111.58 274.36L111.54 274.34L111.5 274.31L111.45 274.28L111.4 274.25L111.36 274.22L111.31 274.19L111.26 274.15L111.22 274.11L111.17 274.07L111.12 274.03L111.07 273.99L111.01 273.95L110.96 273.91L110.91 273.86L110.86 273.81L110.81 273.76L110.76 273.71L110.7 273.66L110.65 273.61L110.6 273.56L110.55 273.5L110.49 273.44L110.19 273.12L109.83 272.75L109.44 272.35L109.01 271.92L108.54 271.45L108.03 270.95L107.5 270.41L106.93 269.85L106.34 269.26L105.72 268.65L105.08 268L104.42 267.33L103.74 266.64L103.05 265.93L102.34 265.2L101.63 264.44L100.9 263.67L100.18 262.89L99.45 262.08L98.72 261.26L97.99 260.43L97.27 259.59L96.55 258.74L95.85 257.88L95.16 257.01L94.48 256.13L93.82 255.25L93.17 254.36L92.55 253.48L91.96 252.59L91.39 251.7L90.85 250.81L90.35 249.92L89.88 249.04L89.44 248.16L89.05 247.29L88.69 246.43L88.38 245.57L88.12 244.73L87.91 243.9L87.89 243.83L87.88 243.77L87.87 243.7L87.85 243.64L87.84 243.58L87.83 243.51L87.81 243.45L87.8 243.38L87.79 243.32L87.77 243.26L87.76 243.19L87.75 243.13L87.74 243.06L87.73 243L87.72 242.93L87.71 242.87L87.7 242.8L87.68 242.74L87.67 242.67L87.66 242.61L87.65 242.54L87.64 242.48L87.64 242.41L87.63 242.35L87.62 242.28L87.61 242.22L87.6 242.15L87.59 242.08L87.58 242.02L87.58 241.95L87.57 241.89L87.56 241.82L87.55 241.75L87.55 241.69L87.54 241.62L87.53 241.55L87.53 241.49L87.52 241.42L87.51 241.35L87.51 241.29L87.47 241.22L87.42 241.13L87.37 241.02L87.31 240.89L87.26 240.75L87.19 240.59L87.13 240.42L87.06 240.23L86.99 240.02L86.92 239.8L86.84 239.56L86.76 239.31L86.68 239.04L86.6 238.76L86.51 238.47L86.42 238.16L86.34 237.83L86.25 237.5L86.16 237.15L86.06 236.78L85.97 236.41L85.88 236.02L85.79 235.62L85.69 235.21L85.6 234.79L85.51 234.35L85.42 233.91L85.33 233.45L85.24 232.98L85.15 232.51L85.06 232.02L84.97 231.53L84.89 231.02L84.8 230.51L84.72 229.98L84.64 229.45L84.56 228.91L84.49 228.36L84.42 227.81L84.35 227.24L84.27 226.52L84.2 225.78L84.14 225.03L84.09 224.27L84.05 223.51L84.01 222.73L83.99 221.95L83.97 221.17L83.96 220.38L83.96 219.6L83.96 218.81L83.97 218.02L83.99 217.24L84.01 216.46L84.04 215.69L84.07 214.92L84.11 214.16L84.15 213.41L84.2 212.67L84.24 211.94L84.3 211.22L84.35 210.52L84.41 209.84L84.47 209.17L84.53 208.52L84.59 207.89L84.65 207.28L84.71 206.7L84.78 206.13L84.84 205.6L84.9 205.08L84.96 204.6L85.02 204.15L85.08 203.72L85.14 203.33L85.19 202.97L85.24 202.64L85.29 202.35L85.33 202.1L85.38 201.89L85.32 201.94L85.26 201.99L85.2 202.04L85.15 202.09L85.1 202.14L85.04 202.19L84.99 202.24L84.94 202.29L84.89 202.34L84.84 202.39L84.79 202.44L84.74 202.49L84.7 202.53L84.61 202.62L84.57 202.67L84.52 202.71L84.48 202.75L84.44 202.79L84.4 202.83L84.36 202.87L84.33 202.9L84.29 202.94L84.25 202.97L84.22 203L84.19 203.03L84.16 203.05L84.12 203.08L84.09 203.1L84.06 203.12L84.04 203.14L84.01 203.15L83.98 203.17L83.96 203.18L83.94 203.19L83.91 203.19L83.89 203.19L83.87 203.19L83.85 203.19L83.83 203.18L83.82 203.18L83.8 203.16L83.79 203.15L83.77 203.13L83.76 203.11L83.75 203.09L83.75 203.06L83.74 203.04L83.74 203.01L83.73 202.98L83.73 202.94L83.73 202.91L83.73 202.87L83.74 202.83L83.74 202.79L83.75 202.75L83.76 202.7L83.77 202.66L83.78 202.61L83.8 202.56L83.81 202.52L83.83 202.46L83.85 202.41L83.87 202.36L83.9 202.31L83.92 202.25L83.95 202.2L83.98 202.14L84.01 202.09L84.04 202.03L84.08 201.98L84.11 201.92L84.15 201.86L84.19 201.81L84.24 201.75L84.28 201.69L84.33 201.64L84.38 201.58L84.43 201.52L84.48 201.47L84.55 201.39L84.63 201.32L84.71 201.24L84.79 201.17L84.88 201.09L84.97 201.02L85.06 200.95L85.15 200.88L85.25 200.81L85.35 200.74L85.45 200.68L85.55 200.61L85.66 200.55L85.77 200.49L85.89 200.44L86 200.38L86.12 200.33L86.24 200.28L86.37 200.23L86.5 200.19L86.63 200.15L86.76 200.12L86.9 200.09L87.04 200.06L87.18 200.04L87.33 200.02L87.48 200L87.63 199.99L87.79 199.99L87.94 199.99L88.11 199.99L88.27 200ZM108.24 232.87L107.6 233.51L106.93 234.31L106.24 235.28L105.58 236.41L104.98 237.72L104.48 239.21L104.12 240.89L103.91 242.76L103.91 244.83L104.15 247.11L104.66 249.59L105.48 252.3L106.64 255.22L106.74 255.29L106.84 255.35L106.94 255.42L107.04 255.48L107.14 255.54L107.24 255.6L107.34 255.66L107.44 255.72L107.53 255.77L107.63 255.82L107.72 255.87L107.82 255.92L107.91 255.97L108 256.01L108.09 256.05L108.49 256.24L108.86 256.43L109.2 256.64L109.51 256.86L109.8 257.09L110.06 257.33L110.31 257.58L110.53 257.83L110.74 258.09L110.94 258.35L111.13 258.62L111.3 258.89L111.47 259.16L111.63 259.43L111.79 259.7L111.94 260.03L112.06 260.41L112.14 260.84L112.21 261.3L112.26 261.78L112.32 262.29L112.38 262.8L112.47 263.32L112.58 263.82L112.74 264.31L112.94 264.76L113.2 265.19L113.53 265.57L113.94 265.9L114.43 266.16L114.78 266.29L115.11 266.38L115.42 266.44L115.7 266.45L115.96 266.44L116.2 266.41L116.42 266.35L116.62 266.27L116.8 266.18L116.96 266.08L117.1 265.97L117.22 265.87L117.32 265.76L117.4 265.66L117.47 265.58L117.32 265.17L117.13 264.75L116.91 264.32L116.67 263.88L116.4 263.44L116.1 262.98L115.79 262.52L115.46 262.05L115.11 261.58L114.75 261.11L114.38 260.63L114 260.15L113.61 259.67L113.22 259.19L112.83 258.71L112.41 258.14L112.04 257.52L111.71 256.85L111.41 256.15L111.15 255.42L110.92 254.67L110.71 253.91L110.53 253.16L110.37 252.41L110.22 251.68L110.09 250.97L109.96 250.3L109.84 249.68L109.72 249.1L109.6 248.59L109.53 248.26L109.48 247.91L109.45 247.54L109.43 247.14L109.43 246.74L109.45 246.31L109.47 245.88L109.51 245.43L109.56 244.98L109.61 244.51L109.68 244.04L109.75 243.57L109.82 243.09L109.89 242.61L109.97 242.13L110.03 241.75L110.09 241.36L110.15 240.98L110.21 240.59L110.26 240.21L110.31 239.84L110.35 239.47L110.39 239.12L110.42 238.77L110.45 238.43L110.46 238.11L110.47 237.8L110.47 237.5L110.45 237.22L110.42 236.96L110.38 236.68L110.33 236.4L110.28 236.1L110.22 235.8L110.16 235.49L110.09 235.17L110.01 234.85L109.93 234.52L109.84 234.18L109.75 233.83L109.66 233.49L109.56 233.13L109.45 232.77L109.35 232.41L109.23 232.04L108.79 232.38L108.24 232.87ZM91.06 204.77L90.41 206.07L89.67 207.66L88.88 209.53L88.09 211.65L87.34 214L86.66 216.56L86.1 219.31L85.69 222.23L85.48 225.29L85.51 228.48L85.82 231.77L86.44 235.14L87.42 238.58L87.61 236.23L88.05 233.85L88.71 231.46L89.55 229.1L90.53 226.78L91.61 224.52L92.76 222.36L93.95 220.31L95.12 218.4L96.26 216.65L97.32 215.09L98.25 213.75L99.04 212.64L99.63 211.79L100 211.22L99.64 210.68L99.23 210.09L98.77 209.47L98.27 208.84L97.74 208.19L97.18 207.54L96.6 206.89L96.01 206.26L95.4 205.66L94.79 205.09L94.19 204.57L93.6 204.11L93.02 203.7L92.47 203.38L91.95 203.13L91.59 203.78L91.06 204.77Z" id="b61kMKIo0B"></path><path d="M410.24 190.22C417.77 192.15 417.68 202.65 418.26 208.86C419.11 217.97 419.42 233.84 416.95 240.28C414.57 246.46 407.04 258.41 402.38 262.97C396.63 268.56 387.45 286.37 386.32 288.21C384.54 291.13 380.98 295.31 375.51 294.98C367.83 294.52 361.2 287.26 360.6 283.77C357.35 264.8 375.51 226.88 385.17 210.86C388.88 204.71 400.99 187.86 410.24 190.22Z" id="aFurnZQWD"></path><path d="M411.72 200L411.87 200.01L412.02 200.02L412.16 200.04L412.31 200.06L412.45 200.09L412.58 200.12L412.72 200.16L412.85 200.19L412.98 200.24L413.1 200.28L413.22 200.33L413.34 200.38L413.46 200.44L413.57 200.49L413.68 200.55L413.79 200.62L413.9 200.68L414 200.75L414.1 200.81L414.19 200.88L414.29 200.95L414.38 201.02L414.47 201.1L414.55 201.17L414.64 201.24L414.72 201.32L414.79 201.39L414.87 201.47L414.92 201.53L414.97 201.58L415.02 201.64L415.07 201.7L415.11 201.75L415.15 201.81L415.19 201.87L415.23 201.92L415.27 201.98L415.3 202.04L415.34 202.09L415.37 202.15L415.4 202.2L415.42 202.26L415.45 202.31L415.47 202.37L415.49 202.42L415.51 202.47L415.53 202.52L415.55 202.57L415.56 202.62L415.57 202.66L415.58 202.71L415.59 202.75L415.6 202.79L415.61 202.83L415.61 202.87L415.61 202.91L415.61 202.95L415.61 202.98L415.61 203.01L415.6 203.04L415.6 203.07L415.59 203.09L415.58 203.11L415.57 203.13L415.56 203.15L415.54 203.17L415.53 203.18L415.51 203.19L415.49 203.19L415.48 203.2L415.45 203.2L415.43 203.19L415.41 203.19L415.39 203.18L415.36 203.17L415.34 203.16L415.31 203.14L415.28 203.12L415.25 203.1L415.22 203.08L415.19 203.06L415.16 203.03L415.13 203L415.09 202.97L415.06 202.94L415.02 202.9L414.98 202.87L414.94 202.83L414.91 202.79L414.86 202.75L414.82 202.71L414.78 202.67L414.74 202.63L414.69 202.58L414.65 202.53L414.6 202.49L414.55 202.44L414.51 202.39L414.46 202.34L414.41 202.29L414.36 202.25L414.3 202.19L414.25 202.14L414.2 202.09L414.14 202.04L414.08 201.99L414.03 201.94L413.97 201.89L414.01 202.1L414.05 202.36L414.1 202.65L414.15 202.97L414.21 203.33L414.26 203.72L414.32 204.15L414.38 204.6L414.44 205.09L414.51 205.6L414.57 206.14L414.63 206.7L414.7 207.29L414.76 207.89L414.82 208.52L414.88 209.17L414.94 209.84L415 210.53L415.05 211.23L415.1 211.94L415.15 212.67L415.19 213.41L415.24 214.16L415.27 214.92L415.31 215.69L415.33 216.46L415.36 217.24L415.37 218.03L415.38 218.81L415.39 219.6L415.38 220.39L415.37 221.17L415.36 221.96L415.33 222.73L415.3 223.51L415.26 224.27L415.21 225.03L415.15 225.78L415.08 226.52L415 227.25L414.93 227.81L414.85 228.37L414.78 228.91L414.7 229.45L414.62 229.99L414.54 230.51L414.46 231.02L414.37 231.53L414.29 232.03L414.2 232.51L414.11 232.99L414.02 233.45L413.93 233.91L413.84 234.36L413.74 234.79L413.65 235.21L413.56 235.62L413.46 236.02L413.37 236.41L413.28 236.79L413.19 237.15L413.1 237.5L413.01 237.84L412.92 238.16L412.83 238.47L412.75 238.77L412.67 239.05L412.58 239.31L412.51 239.57L412.43 239.8L412.36 240.03L412.28 240.23L412.22 240.42L412.15 240.6L412.09 240.75L412.03 240.9L411.98 241.02L411.93 241.13L411.88 241.22L411.84 241.29L411.83 241.36L411.83 241.42L411.82 241.49L411.82 241.56L411.81 241.62L411.8 241.69L411.79 241.76L411.79 241.82L411.78 241.89L411.77 241.95L411.76 242.02L411.76 242.09L411.75 242.15L411.74 242.22L411.73 242.28L411.72 242.35L411.71 242.41L411.7 242.48L411.69 242.55L411.68 242.61L411.67 242.68L411.66 242.74L411.65 242.81L411.64 242.87L411.63 242.94L411.62 243L411.61 243.07L411.59 243.13L411.58 243.19L411.57 243.26L411.56 243.32L411.54 243.39L411.53 243.45L411.52 243.52L411.51 243.58L411.49 243.64L411.48 243.71L411.46 243.77L411.45 243.83L411.44 243.9L411.22 244.73L410.96 245.57L410.65 246.43L410.3 247.29L409.9 248.16L409.47 249.04L408.99 249.92L408.49 250.81L407.95 251.7L407.38 252.59L406.79 253.48L406.17 254.37L405.53 255.25L404.87 256.13L404.19 257.01L403.5 257.88L402.79 258.74L402.08 259.59L401.35 260.44L400.63 261.27L399.9 262.08L399.17 262.89L398.44 263.68L397.72 264.45L397 265.2L396.3 265.93L395.61 266.65L394.93 267.34L394.27 268L393.63 268.65L393.01 269.27L392.42 269.86L391.85 270.42L391.31 270.95L390.81 271.45L390.34 271.92L389.91 272.36L389.51 272.76L389.16 273.12L388.85 273.45L388.8 273.5L388.75 273.56L388.7 273.61L388.64 273.67L388.59 273.72L388.54 273.77L388.49 273.82L388.43 273.86L388.38 273.91L388.33 273.95L388.28 274L388.23 274.04L388.18 274.08L388.13 274.12L388.08 274.15L388.04 274.19L387.99 274.22L387.94 274.25L387.9 274.28L387.85 274.31L387.81 274.34L387.77 274.36L387.73 274.39L387.69 274.41L387.65 274.43L387.61 274.44L387.57 274.46L387.54 274.47L387.5 274.49L387.47 274.49L387.44 274.5L387.41 274.51L387.38 274.51L387.36 274.51L387.33 274.51L387.31 274.51L387.29 274.5L387.27 274.49L387.25 274.48L387.24 274.47L387.23 274.46L387.22 274.44L387.21 274.42L387.2 274.4L387.2 274.38L387.2 274.35L387.2 274.32L387.2 274.3L387.21 274.27L387.21 274.23L387.22 274.2L387.23 274.17L387.24 274.13L387.26 274.09L387.28 274.05L387.29 274.01L387.31 273.97L387.34 273.93L387.36 273.88L387.38 273.84L387.41 273.79L387.44 273.75L387.47 273.7L387.5 273.65L387.53 273.6L387.57 273.55L387.61 273.49L387.64 273.44L387.68 273.39L387.72 273.34L387.76 273.28L387.81 273.23L387.85 273.17L387.9 273.12L387.94 273.06L387.99 273L388.04 272.95L388.09 272.89L388.14 272.83L388.19 272.77L388.49 272.45L388.84 272.09L389.23 271.69L389.66 271.26L390.13 270.79L390.63 270.29L391.16 269.76L391.72 269.2L392.31 268.62L392.92 268L393.56 267.37L394.21 266.7L394.88 266.02L395.57 265.31L396.27 264.58L396.98 263.84L397.69 263.07L398.41 262.29L399.14 261.5L399.86 260.69L400.58 259.87L401.3 259.04L402 258.2L402.7 257.35L403.39 256.49L404.06 255.63L404.72 254.76L405.35 253.89L405.96 253.02L406.55 252.15L407.11 251.27L407.64 250.4L408.14 249.54L408.61 248.68L409.04 247.82L409.42 246.98L409.77 246.14L410.07 245.31L410.33 244.49L410.54 243.69L410.7 242.83L410.81 241.96L410.87 241.06L410.88 240.16L410.85 239.24L410.77 238.3L410.65 237.36L410.49 236.41L410.29 235.45L410.06 234.49L409.8 233.53L409.5 232.56L409.18 231.6L408.84 230.63L408.47 229.68L408.08 228.72L407.67 227.78L407.25 226.84L406.81 225.92L406.36 225L405.91 224.11L405.45 223.22L404.98 222.36L404.51 221.52L404.05 220.69L403.59 219.9L403.13 219.12L402.68 218.37L402.24 217.66L401.82 216.97L401.41 216.31L401.01 215.69L400.64 215.1L400.29 214.55L399.96 214.04L399.67 213.57L399.4 213.14L399.16 212.76L398.96 212.42L398.79 212.13L398.71 212.25L398.64 212.38L398.57 212.5L398.49 212.63L398.42 212.75L398.35 212.87L398.28 212.99L398.21 213.12L398.14 213.24L398.07 213.36L398 213.48L397.93 213.6L397.86 213.72L397.79 213.84L397.73 213.96L397.66 214.08L397.6 214.2L397.53 214.31L397.47 214.43L397.4 214.55L397.34 214.66L397.28 214.78L397.22 214.89L397.16 215.01L397.1 215.12L397.04 215.23L396.98 215.34L396.92 215.45L396.86 215.56L396.81 215.67L396.75 215.78L396.69 215.89L396.64 216L396.58 216.1L396.53 216.21L396.48 216.31L396.43 216.41L396.38 216.52L396.32 216.62L396.28 216.72L396.24 216.8L396.2 216.88L396.16 216.96L396.12 217.04L396.08 217.12L396.04 217.2L396 217.28L395.96 217.36L395.92 217.45L395.88 217.53L395.84 217.62L395.8 217.7L395.76 217.79L395.72 217.87L395.68 217.96L395.63 218.05L395.59 218.14L395.55 218.23L395.51 218.32L395.47 218.41L395.43 218.5L395.38 218.59L395.34 218.68L395.3 218.77L395.26 218.86L395.21 218.96L395.17 219.05L395.13 219.14L395.08 219.24L395.04 219.33L395 219.43L394.95 219.52L394.91 219.62L394.87 219.72L394.82 219.81L394.78 219.91L394.74 220.01L394.69 220.11L394.65 220.21L394.61 220.3L394.71 220.46L394.85 220.67L395.03 220.91L395.24 221.19L395.48 221.51L395.75 221.87L396.04 222.26L396.36 222.69L396.69 223.15L397.05 223.64L397.42 224.17L397.8 224.72L398.19 225.3L398.6 225.9L399.01 226.53L399.42 227.18L399.83 227.86L400.25 228.55L400.66 229.27L401.07 230L401.46 230.75L401.85 231.52L402.23 232.3L402.59 233.09L402.93 233.89L403.26 234.71L403.56 235.53L403.84 236.36L404.09 237.2L404.31 238.04L404.51 238.88L404.66 239.73L404.79 240.57L404.87 241.42L404.91 242.27L404.92 243.11L404.87 243.94L404.78 244.77L404.64 245.59L404.44 246.41L404.34 246.71L404.22 247.01L404.07 247.32L403.9 247.63L403.71 247.94L403.49 248.26L403.26 248.58L403 248.89L402.73 249.21L402.43 249.53L402.13 249.85L401.8 250.17L401.47 250.48L401.12 250.8L400.76 251.11L400.39 251.42L400.02 251.73L399.63 252.03L399.24 252.33L398.84 252.63L398.44 252.92L398.04 253.2L397.63 253.48L397.23 253.76L396.82 254.02L396.42 254.28L396.02 254.54L395.62 254.78L395.23 255.01L394.84 255.24L394.47 255.46L394.1 255.67L393.74 255.86L393.39 256.05L393.06 256.22L392.74 256.39L392.43 256.54L392.14 256.68L391.87 256.8L391.61 256.91L391.48 256.97L391.35 257.03L391.23 257.1L391.1 257.16L390.99 257.22L390.87 257.29L390.76 257.35L390.66 257.42L390.55 257.49L390.45 257.56L390.36 257.64L390.26 257.71L390.17 257.78L390.08 257.86L390 257.94L389.91 258.01L389.83 258.09L389.75 258.17L389.67 258.25L389.6 258.34L389.53 258.42L389.46 258.5L389.39 258.59L389.32 258.68L389.25 258.76L389.19 258.85L389.12 258.94L389.06 259.03L389 259.12L388.94 259.22L388.88 259.31L388.82 259.4L388.76 259.5L388.7 259.59L388.64 259.69L388.58 259.79L388.53 259.88L388.47 259.98L388.41 260.08L388.35 260.18L388.28 260.3L388.23 260.43L388.17 260.57L388.12 260.72L388.08 260.87L388.04 261.03L388 261.2L387.97 261.37L387.94 261.55L387.91 261.73L387.88 261.91L387.85 262.1L387.82 262.3L387.79 262.5L387.77 262.69L387.74 262.9L387.7 263.1L387.67 263.3L387.63 263.5L387.59 263.71L387.55 263.91L387.5 264.11L387.45 264.32L387.39 264.51L387.32 264.71L387.25 264.9L387.17 265.09L387.09 265.28L386.99 265.46L386.89 265.64L386.78 265.81L386.66 265.97L386.53 266.13L386.38 266.29L386.23 266.43L386.06 266.57L385.89 266.7L385.7 266.82L385.49 266.93L385.28 267.03L385.23 267.05L385.19 267.07L385.14 267.08L385.1 267.1L385.05 267.12L385.01 267.13L384.96 267.15L384.92 267.17L384.87 267.18L384.83 267.19L384.79 267.21L384.74 267.22L384.7 267.23L384.66 267.25L384.62 267.26L384.57 267.27L384.53 267.28L384.49 267.29L384.45 267.3L384.41 267.31L384.37 267.32L384.32 267.32L384.28 267.33L384.24 267.34L384.2 267.35L384.16 267.35L384.12 267.36L384.08 267.36L384.04 267.37L384.01 267.37L383.97 267.38L383.93 267.38L383.89 267.38L383.85 267.39L383.81 267.39L383.78 267.39L383.74 267.39L383.7 267.39L383.66 267.39L383.63 267.39L383.56 267.39L383.5 267.39L383.44 267.39L383.38 267.38L383.32 267.38L383.26 267.37L383.2 267.36L383.14 267.36L383.09 267.35L383.03 267.34L382.98 267.32L382.92 267.31L382.87 267.3L382.81 267.28L382.76 267.27L382.71 267.25L382.66 267.24L382.61 267.22L382.56 267.2L382.51 267.18L382.46 267.16L382.41 267.14L382.37 267.12L382.32 267.1L382.27 267.08L382.23 267.05L382.19 267.03L382.14 267.01L382.1 266.98L382.06 266.96L382.01 266.93L381.97 266.9L381.93 266.88L381.89 266.85L381.86 266.82L381.82 266.8L381.78 266.77L381.74 266.74L381.71 266.71L381.67 266.68L381.67 266.73L381.66 266.79L381.66 266.84L381.66 266.89L381.65 266.95L381.65 267L381.65 267.05L381.65 267.11L381.64 267.17L381.64 267.22L381.64 267.28L381.64 267.34L381.64 267.4L381.64 267.45L381.64 267.51L381.63 267.57L381.63 267.63L381.63 267.69L381.63 267.75L381.63 267.81L381.63 267.87L381.63 267.93L381.63 267.99L381.63 268.05L381.63 268.12L381.63 268.18L381.63 268.24L381.63 268.3L381.63 268.36L381.64 268.42L381.64 268.48L381.64 268.55L381.64 268.61L381.64 268.67L381.64 268.73L381.64 268.79L381.64 268.85L381.65 268.91L381.65 268.97L381.65 269.03L381.65 269.11L381.65 269.19L381.65 269.26L381.65 269.33L381.65 269.4L381.65 269.47L381.65 269.53L381.65 269.59L381.64 269.66L381.64 269.71L381.64 269.77L381.63 269.83L381.63 269.88L381.62 269.93L381.61 269.98L381.61 270.02L381.6 270.07L381.59 270.11L381.58 270.15L381.57 270.19L381.56 270.23L381.55 270.26L381.54 270.3L381.53 270.33L381.52 270.36L381.5 270.38L381.49 270.41L381.48 270.43L381.46 270.45L381.45 270.47L381.43 270.49L381.42 270.51L381.4 270.52L381.39 270.54L381.37 270.55L381.35 270.56L381.34 270.57L381.32 270.57L381.3 270.58L381.28 270.58L381.26 270.58L381.24 270.58L381.22 270.57L381.2 270.57L381.18 270.56L381.16 270.55L381.14 270.54L381.13 270.53L381.11 270.52L381.09 270.5L381.07 270.49L381.05 270.47L381.03 270.44L381.01 270.42L381 270.4L380.98 270.37L380.96 270.34L380.95 270.31L380.93 270.27L380.91 270.24L380.9 270.2L380.88 270.16L380.87 270.12L380.86 270.08L380.84 270.03L380.83 269.99L380.82 269.94L380.81 269.89L380.79 269.83L380.78 269.78L380.77 269.72L380.76 269.66L380.76 269.6L380.75 269.54L380.74 269.47L380.73 269.4L380.73 269.33L380.72 269.26L380.72 269.19L380.72 269.11L380.71 269.01L380.71 268.92L380.71 268.82L380.71 268.72L380.7 268.62L380.7 268.52L380.7 268.42L380.7 268.32L380.7 268.22L380.7 268.12L380.7 268.01L380.7 267.91L380.7 267.81L380.7 267.71L380.7 267.61L380.7 267.51L380.7 267.41L380.71 267.31L380.71 267.21L380.71 267.11L380.72 267.02L380.72 266.92L380.73 266.83L380.73 266.73L380.74 266.64L380.75 266.55L380.75 266.46L380.76 266.37L380.77 266.29L380.78 266.21L380.79 266.12L380.8 266.05L380.81 265.97L380.82 265.89L380.84 265.82L380.85 265.75L380.86 265.68L380.88 265.62L380.9 265.56L380.91 265.5L380.97 265.33L381.02 265.16L381.09 265L381.15 264.82L381.23 264.65L381.3 264.48L381.39 264.31L381.47 264.13L381.56 263.96L381.66 263.78L381.75 263.6L381.86 263.43L381.96 263.25L382.07 263.07L382.18 262.88L382.3 262.7L382.42 262.52L382.54 262.34L382.67 262.15L382.8 261.97L382.93 261.78L383.06 261.59L383.2 261.41L383.34 261.22L383.48 261.03L383.62 260.84L383.77 260.65L383.92 260.46L384.07 260.26L384.22 260.07L384.37 259.88L384.53 259.68L384.68 259.49L384.84 259.29L385 259.1L385.16 258.9L385.32 258.7L385.48 258.51L385.64 258.31L385.81 258.11L385.96 257.91L386.11 257.7L386.26 257.48L386.39 257.26L386.53 257.03L386.65 256.79L386.77 256.55L386.89 256.3L387 256.04L387.1 255.79L387.2 255.52L387.3 255.26L387.39 254.99L387.48 254.72L387.56 254.45L387.64 254.17L387.71 253.9L387.78 253.62L387.85 253.34L387.92 253.07L387.98 252.79L388.04 252.52L388.1 252.25L388.15 251.98L388.2 251.71L388.25 251.44L388.3 251.18L388.35 250.93L388.39 250.68L388.44 250.43L388.48 250.19L388.52 249.95L388.56 249.73L388.6 249.51L388.64 249.29L388.68 249.09L388.72 248.89L388.76 248.7L388.8 248.52L388.85 248.36L388.87 248.25L388.89 248.14L388.91 248.02L388.93 247.9L388.95 247.78L388.96 247.66L388.97 247.53L388.98 247.4L388.98 247.27L388.99 247.13L388.99 247L388.99 246.86L388.99 246.71L388.98 246.57L388.98 246.42L388.97 246.27L388.96 246.12L388.95 245.96L388.94 245.81L388.92 245.65L388.91 245.49L388.89 245.33L388.87 245.17L388.86 245L388.84 244.84L388.82 244.67L388.79 244.51L388.77 244.34L388.75 244.17L388.72 244L388.7 243.83L388.67 243.66L388.65 243.49L388.62 243.32L388.6 243.14L388.57 242.97L388.54 242.8L388.51 242.63L388.49 242.45L388.46 242.28L388.44 242.13L388.41 241.97L388.39 241.81L388.36 241.66L388.34 241.51L388.31 241.35L388.29 241.2L388.27 241.05L388.24 240.9L388.22 240.75L388.2 240.6L388.18 240.45L388.16 240.3L388.14 240.15L388.12 240.01L388.1 239.86L388.08 239.72L388.07 239.58L388.05 239.44L388.04 239.3L388.02 239.16L388.01 239.02L388 238.88L387.99 238.75L387.98 238.62L387.97 238.48L387.96 238.35L387.96 238.23L387.95 238.1L387.95 237.97L387.95 237.85L387.95 237.73L387.95 237.61L387.95 237.49L387.96 237.38L387.96 237.26L387.97 237.15L387.98 237.04L387.99 236.93L388.01 236.83L388.07 236.43L388.14 236.01L388.22 235.58L388.32 235.13L388.42 234.67L388.54 234.19L388.67 233.7L388.8 233.2L388.95 232.69L389.1 232.17L389.26 231.64L389.43 231.11L389.6 230.56L389.79 230.01L389.98 229.45L390.17 228.89L390.37 228.33L390.58 227.76L390.79 227.19L391 226.62L391.22 226.05L391.44 225.48L391.66 224.91L391.89 224.34L392.11 223.78L392.34 223.22L392.57 222.67L392.8 222.12L393.03 221.57L393.26 221.04L393.49 220.51L393.72 220L393.95 219.49L394.17 218.99L394.39 218.51L394.61 218.04L394.82 217.58L395.03 217.14L395.24 216.71L395.44 216.3L395.68 215.83L395.92 215.36L396.16 214.88L396.42 214.4L396.68 213.92L396.94 213.43L397.22 212.94L397.5 212.45L397.79 211.96L398.08 211.47L398.38 210.98L398.69 210.49L399 210.01L399.32 209.52L399.64 209.05L399.98 208.57L400.31 208.1L400.66 207.64L401.01 207.18L401.36 206.73L401.73 206.29L402.09 205.86L402.47 205.43L402.85 205.02L403.23 204.61L403.62 204.22L404.02 203.84L404.42 203.47L404.83 203.12L405.24 202.78L405.66 202.45L406.08 202.14L406.51 201.85L406.94 201.57L407.38 201.31L407.82 201.07L408.27 200.85L408.72 200.64L409.18 200.46L409.64 200.3L409.83 200.24L410.02 200.19L410.2 200.14L410.38 200.1L410.56 200.07L410.74 200.04L410.91 200.02L411.08 200.01L411.24 199.99L411.4 199.99L411.56 199.99L411.72 200ZM389.89 232.77L389.79 233.13L389.69 233.48L389.59 233.83L389.5 234.17L389.42 234.51L389.34 234.84L389.26 235.17L389.19 235.49L389.13 235.8L389.07 236.1L389.01 236.39L388.97 236.68L388.93 236.96L388.9 237.22L388.88 237.5L388.88 237.79L388.88 238.1L388.9 238.43L388.92 238.76L388.95 239.11L388.99 239.47L389.04 239.84L389.09 240.21L389.14 240.59L389.2 240.97L389.26 241.36L389.32 241.74L389.38 242.13L389.46 242.61L389.53 243.08L389.6 243.56L389.67 244.04L389.73 244.51L389.79 244.97L389.84 245.43L389.87 245.87L389.9 246.31L389.91 246.73L389.91 247.14L389.9 247.53L389.87 247.9L389.82 248.26L389.75 248.59L389.62 249.1L389.51 249.67L389.39 250.3L389.26 250.97L389.13 251.67L388.98 252.4L388.82 253.15L388.63 253.91L388.43 254.67L388.2 255.42L387.93 256.15L387.64 256.85L387.31 257.52L386.93 258.14L386.52 258.71L386.13 259.19L385.74 259.67L385.35 260.15L384.97 260.63L384.6 261.1L384.24 261.58L383.89 262.05L383.56 262.52L383.24 262.98L382.95 263.43L382.68 263.88L382.43 264.32L382.22 264.75L382.03 265.16L381.88 265.57L381.94 265.66L382.03 265.76L382.13 265.86L382.25 265.97L382.39 266.08L382.55 266.18L382.73 266.27L382.92 266.35L383.14 266.4L383.38 266.44L383.64 266.45L383.93 266.43L384.23 266.38L384.56 266.29L384.92 266.16L385.41 265.89L385.82 265.56L386.15 265.18L386.41 264.76L386.61 264.3L386.76 263.82L386.88 263.31L386.96 262.8L387.03 262.28L387.08 261.78L387.14 261.29L387.2 260.83L387.29 260.41L387.4 260.02L387.55 259.69L387.71 259.42L387.88 259.15L388.04 258.88L388.22 258.61L388.4 258.35L388.6 258.08L388.81 257.82L389.04 257.57L389.28 257.33L389.54 257.09L389.83 256.86L390.14 256.64L390.48 256.43L390.85 256.23L391.25 256.04L391.34 256L391.43 255.96L391.53 255.92L391.62 255.87L391.72 255.82L391.81 255.77L391.91 255.71L392.01 255.66L392.11 255.6L392.21 255.54L392.31 255.48L392.41 255.41L392.51 255.35L392.61 255.28L392.71 255.22L393.87 252.29L394.68 249.59L395.19 247.1L395.43 244.83L395.43 242.76L395.23 240.89L394.86 239.21L394.36 237.72L393.76 236.41L393.1 235.27L392.42 234.31L391.74 233.51L391.11 232.86L390.55 232.38L390.11 232.03L390 232.4L389.89 232.77ZM406.32 203.71L405.75 204.11L405.15 204.57L404.55 205.09L403.95 205.66L403.34 206.26L402.74 206.89L402.16 207.54L401.6 208.19L401.07 208.84L400.57 209.47L400.12 210.09L399.7 210.68L399.35 211.22L399.71 211.79L400.31 212.64L401.09 213.75L402.03 215.09L403.09 216.65L404.22 218.4L405.4 220.31L406.58 222.36L407.74 224.52L408.82 226.78L409.8 229.1L410.64 231.46L411.3 233.85L411.74 236.23L411.93 238.58L412.91 235.14L413.53 231.77L413.83 228.48L413.86 225.29L413.65 222.23L413.25 219.31L412.68 216.56L412 214L411.25 211.65L410.46 209.53L409.68 207.66L408.94 206.07L408.28 204.77L407.76 203.78L407.4 203.13L406.87 203.38L406.32 203.71Z" id="d2WRNZDXfT"></path><path d="M396.95 195.02C396.93 195.13 366.46 295.69 357.25 326.06C355.47 331.96 352.43 337.44 348.36 342.03C332.43 360.01 288.94 404.67 250.05 404.67C210.43 404.67 166.08 357.06 150.78 339.13C147.18 334.91 144.52 330.05 142.85 324.72C133.84 295.84 102.54 195.6 102.51 195.49C102.51 195.49 102.51 195.49 102.51 195.49C99.26 183.01 97.52 169.91 97.5 156.4C97.37 71.34 165.39 2.3 249.43 2.17C333.49 2.03 401.71 70.86 401.84 155.92C401.87 169.42 400.17 182.53 396.96 195.02C396.96 195.02 396.95 195.02 396.95 195.02Z" id="f4kHP0Wye8"></path><path d="M396.95 195.02C396.93 195.13 366.46 295.69 357.25 326.06C355.47 331.96 352.43 337.44 348.36 342.03C332.43 360.01 288.94 404.67 250.05 404.67C210.43 404.67 166.08 357.06 150.78 339.13C147.18 334.91 144.52 330.05 142.85 324.72C133.84 295.84 102.54 195.6 102.51 195.49C102.51 195.49 102.51 195.49 102.51 195.49C99.26 183.01 97.52 169.91 97.5 156.4C97.37 71.34 165.39 2.3 249.43 2.17C333.49 2.03 401.71 70.86 401.84 155.92C401.87 169.42 400.17 182.53 396.96 195.02C396.96 195.02 396.95 195.02 396.95 195.02Z" id="baQBCOEf6i"></path><path d="M261.31 347.58C258.91 358.75 242.21 357.15 240.57 348.09C244.72 347.99 259.24 347.63 261.31 347.58Z" id="b4BvO6tkjX"></path><linearGradient id="gradienta1492eAPTT" gradientUnits="userSpaceOnUse" x1="250" y1="355" x2="250" y2="347.5"><stop style="stop-color: #e1ac85;stop-opacity: 1" offset="10%"></stop><stop style="stop-color: #daa075;stop-opacity: 1" offset="100%"></stop></linearGradient><path d="M261.52 347.2L261.62 347.43L261.64 347.68L261.55 347.92L261.37 348.12L261.08 348.24L258.37 348.72L255.56 349.04L252.71 349.23L249.91 349.3L247.25 349.28L244.8 349.17L242.64 349.01L240.86 348.8L240.56 348.7L240.36 348.52L240.25 348.29L240.24 348.04L240.32 347.8L240.48 347.6L240.73 347.47L241.06 347.45L241.57 347.5L242.93 347.63L244.98 347.78L247.6 347.9L250.63 347.92L253.93 347.8L257.35 347.48L260.75 346.91L261.08 346.9L261.34 347.01L261.52 347.2Z" id="cIq6UdOg5"></path><path d="M186.16 198.68C204.95 200.99 218 212.49 216.29 218.29C215.34 221.5 189.69 226.4 180.66 225.41C171.5 224.4 157.44 220.1 154.38 206.31C153.12 200.6 167.36 196.38 186.16 198.68Z" id="dLf2WJzpa"></path><radialGradient id="gradientc3pptpQ3Vf" gradientUnits="userSpaceOnUse" cx="183.11" cy="211.17" dx="259.5" dy="243.52" r="82.95"><stop style="stop-color: #ffffff;stop-opacity: 1" offset="0%"></stop><stop style="stop-color: #fcfdfd;stop-opacity: 1" offset="31.5%"></stop><stop style="stop-color: #f4f7f8;stop-opacity: 1" offset="50.4%"></stop><stop style="stop-color: #e5ecef;stop-opacity: 1" offset="66%"></stop><stop style="stop-color: #d8e2e7;stop-opacity: 1" offset="76%"></stop></radialGradient><path d="M185.63 225.63C177.34 225.63 170.63 218.91 170.63 210.63C170.63 210.63 170.63 210.63 170.63 210.63C170.63 202.34 177.34 195.63 185.63 195.63C193.91 195.62 200.63 202.34 200.63 210.63C200.63 210.63 200.63 210.63 200.63 210.63C196.15 220.63 191.15 225.63 185.63 225.63Z" id="b2S9nRbgJf"></path><path d="M185.63 216.51C182.38 216.51 179.74 213.88 179.74 210.63C179.74 207.38 182.38 204.74 185.63 204.74C188.88 204.74 191.51 207.38 191.51 210.63C191.51 213.88 188.88 216.51 185.63 216.51Z" id="fzcMNEbHy"></path><path d="M170.56 192.39C174.78 192.18 183.25 192.7 187.4 193.45C195.83 194.97 210.53 199.65 216.59 211.41C218.46 215.02 216.78 217.55 216.29 218.09C217.04 212.03 204.19 201.23 186.16 199.08C167.36 196.85 153.11 200.94 154.38 206.48C157.44 219.85 171.5 224.01 180.66 224.99C190.9 226.09 209.87 221.14 212.37 220.61C207.37 223.13 193.56 225.84 187.95 226.36C186.09 226.54 182.35 226.62 180.49 226.58C165.62 226.18 155.07 218.64 151.17 208.43C148.66 201.86 151.4 197.26 156.92 195.05C159.12 194.17 167.09 192.55 170.56 192.39Z" id="aicXgvh6"></path><path d="M312.84 198.68C294.05 200.99 281 212.49 282.71 218.29C283.66 221.5 309.31 226.4 318.35 225.41C327.51 224.4 341.57 220.1 344.62 206.31C345.89 200.6 331.65 196.38 312.84 198.68Z" id="brwgxhHqB"></path><radialGradient id="gradienta1M4k5LIw" gradientUnits="userSpaceOnUse" cx="315.89" cy="211.16" dx="240.51" dy="243.52" r="82.03"><stop style="stop-color: #ffffff;stop-opacity: 1" offset="0%"></stop><stop style="stop-color: #fcfdfd;stop-opacity: 1" offset="31.6%"></stop><stop style="stop-color: #f4f7f8;stop-opacity: 1" offset="50.5%"></stop><stop style="stop-color: #e5ecef;stop-opacity: 1" offset="66.10000000000001%"></stop><stop style="stop-color: #d8e2e7;stop-opacity: 1" offset="76%"></stop></radialGradient><path d="M314.38 225.63C306.1 225.63 299.38 218.91 299.38 210.63C299.38 210.63 299.38 210.63 299.38 210.63C299.38 202.34 306.1 195.63 314.38 195.63C322.66 195.62 329.38 202.34 329.38 210.63C329.38 210.63 329.38 210.63 329.38 210.63C324.9 220.63 319.9 225.63 314.38 225.63Z" id="aJLNBR0U0"></path><path d="M314.38 216.51C311.13 216.51 308.49 213.88 308.49 210.63C308.49 207.38 311.13 204.74 314.38 204.74C317.63 204.74 320.26 207.38 320.26 210.63C320.26 213.88 317.63 216.51 314.38 216.51Z" id="kVawuiUwA"></path><path d="M328.44 192.39C324.22 192.18 315.76 192.7 311.6 193.45C303.17 194.97 288.48 199.65 282.41 211.41C280.54 215.02 282.22 217.55 282.72 218.09C281.97 212.03 294.81 201.23 312.85 199.08C331.65 196.85 345.89 200.94 344.62 206.48C341.57 219.85 327.51 224.01 318.35 224.99C308.1 226.09 289.14 221.14 286.63 220.61C291.63 223.13 305.44 225.84 311.05 226.36C312.91 226.54 316.65 226.62 318.52 226.58C333.39 226.18 343.94 218.64 347.84 208.43C350.34 201.86 347.6 197.26 342.08 195.05C339.88 194.17 331.92 192.55 328.44 192.39Z" id="f1H4JyoPZz"></path><path d="M211.47 177.31C213.58 177.72 227.27 181.16 224.75 185.99C223.54 188.3 219.66 188.02 217.49 187.98C183.27 187.34 166.63 162.99 135 185.47C159.89 160.54 176.9 170.68 211.47 177.31Z" id="bqF9ykR6I"></path><path d="M288.53 177.31C286.41 177.72 272.73 181.16 275.25 185.99C276.46 188.3 280.34 188.02 282.51 187.98C316.73 187.34 333.37 162.99 365 185.47C340.12 160.54 323.1 170.68 288.53 177.31Z" id="a1mm47gOYV"></path><path d="M249.09 299.82C256.08 300.19 275.7 292.57 272.38 287.34C268.88 281.85 255.77 286.63 250.11 286.63C244.48 286.62 230.73 281.86 227.79 288.75C225.59 293.91 242.62 299.48 249.09 299.82Z" id="av5RxMy0Z"></path><path d="M264.67 288.83L266.45 289.51L267.97 290.39L268.96 291.38L269.18 292.39L268.61 292.9L267.52 292.83L266.1 292.41L264.57 291.87L263.15 291.43L262.03 291.32L260.88 291.63L259.42 292.18L257.85 292.75L256.39 293.15L255.25 293.18L254.64 292.65L254.8 291.69L255.68 290.76L257.02 289.92L258.57 289.21L260.08 288.69L261.28 288.41L262.86 288.43L264.67 288.83Z" id="aWAIQtlrQ"></path><path d="M254.7 274.42C255.21 259.4 252.31 214.84 250.22 215C248.27 215.15 244.56 259.09 245.35 274.42C245.55 278.18 248.51 280 250.22 280C251.74 280 254.58 278.15 254.7 274.42Z" id="g3ArQoUBq6"></path><path d="M243.19 290.46L244.94 291.23L246.4 292.18L247.34 293.2L247.5 294.2L246.91 294.67L245.82 294.54L244.43 294.05L242.93 293.44L241.53 292.93L240.42 292.76L239.26 293L237.77 293.45L236.17 293.93L234.69 294.24L233.55 294.21L232.97 293.65L233.18 292.72L234.11 291.86L235.49 291.11L237.08 290.5L238.61 290.07L239.84 289.86L241.41 289.97L243.19 290.46Z" id="f2o0s6ccB"></path></defs><g><g><use xlink:href="#b35eX9opvH" opacity="1" fill="url(#gradientabwuSgaNT)"></use><g><use xlink:href="#b35eX9opvH" opacity="1" fill-opacity="0" stroke="#000000" stroke-width="1" stroke-opacity="0"></use></g></g><g><use xlink:href="#a1dwVAMOZ" opacity="1" fill="#e9b995" fill-opacity="1"></use><g><use xlink:href="#a1dwVAMOZ" opacity="1" fill-opacity="0" stroke="#bb7440" stroke-width="1.5" stroke-opacity="1"></use></g></g><g><use xlink:href="#b61kMKIo0B" opacity="1" fill="#bb7440" fill-opacity="1"></use><g><use xlink:href="#b61kMKIo0B" opacity="1" fill-opacity="0" stroke="#000000" stroke-width="NaN" stroke-opacity="0"></use></g></g><g><use xlink:href="#aFurnZQWD" opacity="1" fill="#e9b995" fill-opacity="1"></use><g><use xlink:href="#aFurnZQWD" opacity="1" fill-opacity="0" stroke="#bb7440" stroke-width="1.5" stroke-opacity="1"></use></g></g><g><use xlink:href="#d2WRNZDXfT" opacity="1" fill="#bb7440" fill-opacity="1"></use><g><use xlink:href="#d2WRNZDXfT" opacity="1" fill-opacity="0" stroke="#000000" stroke-width="NaN" stroke-opacity="0"></use></g></g><g><use xlink:href="#f4kHP0Wye8" opacity="1" fill="#e9b995" fill-opacity="1"></use><g><use xlink:href="#f4kHP0Wye8" opacity="1" fill-opacity="0" stroke="#000000" stroke-width="NaN" stroke-opacity="0"></use></g></g><g><use xlink:href="#baQBCOEf6i" opacity="1" fill="#000000" fill-opacity="0"></use><g><use xlink:href="#baQBCOEf6i" opacity="1" fill-opacity="0" stroke="#d78040" stroke-width="1.5" stroke-opacity="1"></use></g></g><g><use xlink:href="#b4BvO6tkjX" opacity="1" fill="url(#gradienta1492eAPTT)"></use><g><use xlink:href="#b4BvO6tkjX" opacity="1" fill-opacity="0" stroke="#000000" stroke-width="1" stroke-opacity="0"></use></g></g><g><use xlink:href="#cIq6UdOg5" opacity="1" fill="#bb7440" fill-opacity="1"></use><g><use xlink:href="#cIq6UdOg5" opacity="1" fill-opacity="0" stroke="#000000" stroke-width="NaN" stroke-opacity="0"></use></g></g><g><use xlink:href="#dLf2WJzpa" opacity="1" fill="url(#gradientc3pptpQ3Vf)"></use><g><use xlink:href="#dLf2WJzpa" opacity="1" fill-opacity="0" stroke="#000000" stroke-width="1" stroke-opacity="0"></use></g></g><g><use xlink:href="#b2S9nRbgJf" opacity="1" fill="#4e60a3" fill-opacity="1"></use><g><use xlink:href="#b2S9nRbgJf" opacity="1" fill-opacity="0" stroke="#000000" stroke-width="NaN" stroke-opacity="0"></use></g></g><g><use xlink:href="#fzcMNEbHy" opacity="1" fill="#000000" fill-opacity="1"></use><g><use xlink:href="#fzcMNEbHy" opacity="1" fill-opacity="0" stroke="#000000" stroke-width="NaN" stroke-opacity="0"></use></g></g><g><use xlink:href="#aicXgvh6" opacity="1" fill="#000000" fill-opacity="1"></use><g><use xlink:href="#aicXgvh6" opacity="1" fill-opacity="0" stroke="#000000" stroke-width="NaN" stroke-opacity="0"></use></g></g><g><use xlink:href="#brwgxhHqB" opacity="1" fill="url(#gradienta1M4k5LIw)"></use><g><use xlink:href="#brwgxhHqB" opacity="1" fill-opacity="0" stroke="#000000" stroke-width="1" stroke-opacity="0"></use></g></g><g><use xlink:href="#aJLNBR0U0" opacity="1" fill="#4e60a3" fill-opacity="1"></use><g><use xlink:href="#aJLNBR0U0" opacity="1" fill-opacity="0" stroke="#000000" stroke-width="NaN" stroke-opacity="0"></use></g></g><g><use xlink:href="#kVawuiUwA" opacity="1" fill="#000000" fill-opacity="1"></use><g><use xlink:href="#kVawuiUwA" opacity="1" fill-opacity="0" stroke="#000000" stroke-width="NaN" stroke-opacity="0"></use></g></g><g><use xlink:href="#f1H4JyoPZz" opacity="1" fill="#000000" fill-opacity="1"></use><g><use xlink:href="#f1H4JyoPZz" opacity="1" fill-opacity="0" stroke="#000000" stroke-width="NaN" stroke-opacity="0"></use></g></g><g><use xlink:href="#bqF9ykR6I" opacity="1" fill="#2a232b" fill-opacity="1"></use><g><use xlink:href="#bqF9ykR6I" opacity="1" fill-opacity="0" stroke="#000000" stroke-width="NaN" stroke-opacity="0"></use></g></g><g><use xlink:href="#a1mm47gOYV" opacity="1" fill="#2a232b" fill-opacity="1"></use><g><use xlink:href="#a1mm47gOYV" opacity="1" fill-opacity="0" stroke="#000000" stroke-width="NaN" stroke-opacity="0"></use></g></g><g><use xlink:href="#av5RxMy0Z" opacity="1" fill="#daa075" fill-opacity="1"></use><g><use xlink:href="#av5RxMy0Z" opacity="1" fill-opacity="0" stroke="#000000" stroke-width="NaN" stroke-opacity="0"></use></g></g><g><use xlink:href="#aWAIQtlrQ" opacity="1" fill="#bb7440" fill-opacity="1"></use><g><use xlink:href="#aWAIQtlrQ" opacity="1" fill-opacity="0" stroke="#000000" stroke-width="NaN" stroke-opacity="0"></use></g></g><g><use xlink:href="#g3ArQoUBq6" opacity="1" fill="#daa075" fill-opacity="1"></use><g><use xlink:href="#g3ArQoUBq6" opacity="1" fill-opacity="0" stroke="#000000" stroke-width="NaN" stroke-opacity="0"></use></g></g><g><use xlink:href="#f2o0s6ccB" opacity="1" fill="#bb7440" fill-opacity="1"></use><g><use xlink:href="#f2o0s6ccB" opacity="1" fill-opacity="0" stroke="#000000" stroke-width="null" stroke-opacity="0"></use></g></g></g></svg>