<?xml version="1.0" encoding="UTF-8"?>
<svg xmlns="http://www.w3.org/2000/svg" xmlns:xlink="http://www.w3.org/1999/xlink" width="174pt" height="163pt" viewBox="0 0 174 163" version="1.1">
<g id="surface3">
<path style=" stroke:none;fill-rule:nonzero;fill:rgb(95.686275%,84.705882%,32.54902%);fill-opacity:1;" d="M 107.792969 17.136719 C 95.863281 6.085938 80 0 63.132812 0 C 46.257812 0 30.398438 6.085938 18.46875 17.136719 C -6.15625 39.949219 -6.15625 77.066406 18.46875 99.878906 C 19.652344 100.972656 21.285156 101.542969 22.953125 101.441406 C 24.625 101.339844 26.164062 100.578125 27.183594 99.351562 L 63.132812 56.007812 L 99.078125 99.351562 C 100.097656 100.578125 101.636719 101.339844 103.304688 101.441406 C 103.433594 101.449219 103.558594 101.453125 103.683594 101.453125 C 105.21875 101.453125 106.699219 100.890625 107.792969 99.878906 C 119.722656 88.828125 126.289062 74.132812 126.289062 58.507812 C 126.292969 42.878906 119.722656 28.1875 107.792969 17.136719 Z M 107.792969 17.136719 "/>
<path style=" stroke:none;fill-rule:nonzero;fill:rgb(100%,94.901961%,40%);fill-opacity:1;" d="M 66.722656 0.707031 C 67.367188 -1.578125 66.363281 -1.511719 64.476562 0.859375 L 9.113281 70.523438 C 7.230469 72.894531 5.179688 76.667969 4.535156 78.953125 C 4.265625 79.902344 4.285156 80.445312 4.527344 80.585938 C 4.875 80.785156 5.675781 80.1875 6.777344 78.800781 L 62.144531 9.136719 C 64.027344 6.765625 66.078125 2.992188 66.722656 0.707031 Z M 66.722656 0.707031 "/>
<path style=" stroke:none;fill-rule:nonzero;fill:rgb(100%,94.901961%,40%);fill-opacity:1;" d="M 118.089844 73.546875 L 83.160156 33.128906 C 81.410156 31.105469 80.351562 31.148438 80.789062 33.226562 C 81.230469 35.304688 83.007812 38.632812 84.757812 40.65625 L 119.683594 81.074219 C 120.707031 82.261719 121.496094 82.738281 121.886719 82.511719 C 122.164062 82.351562 122.238281 81.839844 122.054688 80.980469 C 121.617188 78.902344 119.839844 75.574219 118.089844 73.546875 Z M 118.089844 73.546875 "/>
<path style=" stroke:none;fill-rule:nonzero;fill:rgb(100%,94.901961%,40%);fill-opacity:1;" d="M 98.925781 8.074219 C 99.554688 5.714844 98.480469 5.757812 96.523438 8.171875 L 27.867188 92.976562 C 25.910156 95.390625 23.816406 99.261719 23.1875 101.625 C 22.925781 102.605469 22.960938 103.167969 23.226562 103.324219 C 23.601562 103.542969 24.445312 102.941406 25.589844 101.527344 L 94.246094 16.722656 C 96.203125 14.308594 98.296875 10.4375 98.925781 8.074219 Z M 98.925781 8.074219 "/>
</g>
</svg>
