<?xml version="1.0" encoding="UTF-8" standalone="no"?>
<!DOCTYPE svg PUBLIC "-//W3C//DTD SVG 1.1//EN" "http://www.w3.org/Graphics/SVG/1.1/DTD/svg11.dtd">
<svg version="1.1" xmlns="http://www.w3.org/2000/svg" xmlns:xlink="http://www.w3.org/1999/xlink" preserveAspectRatio="xMidYMid meet" viewBox="199.84480434182635 59.21374045801531 172.1271561595092 140.14510128747884" width="168.13" height="136.15">
	<defs>
		<path d="M288.25 60.27L289.92 60.35L291.59 60.46L293.24 60.59L294.89 60.76L296.54 60.95L298.17 61.17L299.8 61.43L301.42 61.71L303.03 62.02L304.64 62.36L306.23 62.73L307.81 63.13L309.39 63.55L310.95 64.01L312.5 64.49L314.04 65L315.57 65.54L317.09 66.1L318.59 66.7L320.08 67.32L321.56 67.97L323.03 68.64L324.48 69.34L325.92 70.07L327.34 70.83L328.75 71.61L330.14 72.42L331.52 73.26L332.88 74.12L334.22 75.01L335.55 75.92L336.86 76.86L338.15 77.82L339.43 78.81L340.69 79.83L341.93 80.87L343.15 81.94L344.35 83.03L345.53 84.14L346.68 85.27L347.8 86.42L348.9 87.58L349.97 88.76L351.01 89.96L352.02 91.18L353.01 92.41L353.97 93.65L354.9 94.91L355.8 96.19L356.67 97.48L357.52 98.78L358.33 100.1L359.12 101.43L359.88 102.78L360.61 104.14L361.31 105.51L361.98 106.89L362.62 108.28L363.23 109.69L363.81 111.1L364.36 112.53L364.88 113.97L365.37 115.41L365.83 116.87L366.26 118.34L366.66 119.81L367.02 121.3L367.36 122.79L367.66 124.29L367.94 125.8L368.18 127.32L368.39 128.84L368.57 130.37L368.71 131.9L368.83 133.45L368.91 134.99L368.96 136.55L368.97 138.1L368.96 139.66L368.91 141.21L368.83 142.76L368.71 144.3L368.57 145.84L368.39 147.37L368.18 148.89L367.94 150.41L367.66 151.92L367.36 153.42L367.02 154.91L366.65 156.39L366.26 157.87L365.83 159.34L365.37 160.79L364.88 162.24L364.36 163.68L363.81 165.11L363.23 166.52L362.62 167.93L361.98 169.32L361.31 170.7L360.61 172.07L359.88 173.43L359.12 174.77L358.33 176.11L357.52 177.42L356.67 178.73L355.8 180.02L354.9 181.29L353.97 182.56L353.01 183.8L352.02 185.03L351.01 186.25L349.97 187.44L348.9 188.63L347.8 189.79L346.68 190.94L345.53 192.07L344.35 193.18L344.24 193.28L344.13 193.38L344.01 193.47L343.9 193.57L343.78 193.66L343.66 193.75L343.54 193.83L343.42 193.92L343.29 194L343.17 194.08L343.04 194.15L342.91 194.23L342.78 194.3L342.65 194.37L342.52 194.44L342.38 194.5L342.25 194.56L342.11 194.62L341.97 194.68L341.83 194.73L341.69 194.79L341.55 194.84L341.41 194.88L341.27 194.93L341.12 194.97L340.98 195.01L340.83 195.04L340.69 195.08L340.54 195.11L340.39 195.14L340.24 195.17L340.09 195.19L339.94 195.21L339.79 195.23L339.64 195.24L339.49 195.25L339.34 195.26L339.18 195.27L339.03 195.28L338.88 195.28L338.85 195.28L338.83 195.28L338.8 195.28L338.78 195.28L338.75 195.28L338.73 195.28L338.7 195.28L338.68 195.27L338.65 195.27L338.63 195.27L338.6 195.27L338.58 195.27L338.55 195.27L338.53 195.27L338.5 195.27L338.48 195.27L338.45 195.27L338.42 195.26L338.4 195.26L338.37 195.26L338.21 195.25L338.04 195.23L337.88 195.22L337.71 195.19L337.55 195.17L337.39 195.14L337.23 195.11L337.07 195.08L336.91 195.04L336.75 195L336.59 194.96L336.44 194.91L336.28 194.86L336.13 194.81L335.97 194.75L335.82 194.69L335.67 194.63L335.53 194.57L335.38 194.5L335.24 194.43L335.09 194.36L334.95 194.28L334.81 194.21L334.67 194.13L334.54 194.04L334.4 193.96L334.27 193.87L334.14 193.77L334.01 193.68L333.89 193.58L333.76 193.48L333.64 193.38L333.52 193.28L333.4 193.17L333.29 193.06L333.17 192.95L333.06 192.84L332.96 192.72L332.85 192.6L332.75 192.48L284.89 134.78L237.03 192.48L236.93 192.6L236.83 192.72L236.72 192.84L236.61 192.95L236.49 193.06L236.38 193.17L236.26 193.28L236.14 193.38L236.02 193.48L235.89 193.58L235.77 193.68L235.64 193.77L235.51 193.87L235.38 193.96L235.24 194.04L235.11 194.13L234.97 194.21L234.83 194.28L234.69 194.36L234.54 194.43L234.4 194.5L234.25 194.57L234.1 194.63L233.96 194.69L233.8 194.75L233.65 194.81L233.5 194.86L233.34 194.91L233.19 194.96L233.03 195L232.87 195.04L232.71 195.08L232.55 195.11L232.39 195.14L232.23 195.17L232.06 195.19L231.9 195.22L231.73 195.23L231.57 195.25L231.4 195.26L231.24 195.27L231.07 195.28L230.9 195.28L230.74 195.28L230.57 195.27L230.41 195.26L230.24 195.25L230.08 195.24L229.92 195.22L229.75 195.2L229.59 195.17L229.43 195.15L229.27 195.12L229.11 195.08L228.95 195.05L228.8 195.01L228.64 194.96L228.48 194.92L228.33 194.87L228.18 194.82L228.02 194.76L227.87 194.71L227.72 194.65L227.57 194.58L227.43 194.52L227.28 194.45L227.14 194.37L227 194.3L226.86 194.22L226.72 194.14L226.58 194.06L226.44 193.97L226.31 193.88L226.18 193.79L226.05 193.69L225.92 193.6L225.8 193.5L225.67 193.39L225.55 193.29L225.43 193.18L223.03 190.87L220.76 188.49L218.61 186.04L216.58 183.54L214.68 180.97L212.89 178.36L211.23 175.69L209.7 172.98L208.28 170.22L206.99 167.43L205.82 164.6L204.78 161.73L203.86 158.84L203.06 155.93L202.38 152.99L201.83 150.03L201.4 147.06L201.09 144.08L200.91 141.1L200.84 138.1L200.91 135.11L201.09 132.13L201.4 129.14L201.83 126.18L202.38 123.22L203.06 120.28L203.86 117.37L204.78 114.47L205.82 111.61L206.99 108.78L208.28 105.99L209.7 103.23L211.23 100.52L212.89 97.85L214.68 95.23L216.58 92.67L218.61 90.17L220.76 87.72L223.03 85.34L225.43 83.03L226.63 81.94L227.85 80.87L229.09 79.83L230.35 78.81L231.63 77.82L232.92 76.86L234.23 75.92L235.56 75.01L236.9 74.12L238.26 73.26L239.64 72.42L241.03 71.61L242.44 70.83L243.86 70.07L245.3 69.34L246.75 68.64L248.22 67.97L249.7 67.32L251.19 66.7L252.69 66.1L254.21 65.54L255.74 65L257.28 64.49L258.83 64.01L260.39 63.55L261.97 63.13L263.55 62.73L265.14 62.36L266.75 62.02L268.36 61.71L269.98 61.43L271.61 61.17L273.24 60.95L274.89 60.76L276.54 60.59L278.2 60.46L279.86 60.35L281.53 60.27L283.21 60.23L284.89 60.21L286.57 60.23L288.25 60.27Z" id="b6DzDg8Bx4"></path>
		
		<path d="M291.37 60.23L291.43 60.25L291.49 60.28L291.54 60.33L291.59 60.39L291.62 60.46L291.66 60.54L291.68 60.64L291.7 60.74L291.71 60.86L291.71 60.99L291.7 61.13L291.69 61.28L291.67 61.44L291.64 61.62L291.6 61.81L291.56 62L291.51 62.21L291.45 62.44L291.38 62.67L291.31 62.91L291.22 63.15L291.14 63.41L291.04 63.66L290.94 63.93L290.84 64.2L290.73 64.47L290.61 64.75L290.49 65.03L290.36 65.32L290.23 65.61L290.09 65.9L289.95 66.19L289.8 66.49L289.65 66.79L289.5 67.09L289.34 67.4L289.18 67.7L289.02 68.01L288.85 68.31L288.68 68.61L288.51 68.92L288.33 69.22L288.16 69.52L287.98 69.82L287.8 70.12L287.61 70.42L287.43 70.71L287.24 71L287.05 71.29L286.87 71.57L286.68 71.85L286.49 72.13L286.3 72.4L286.11 72.66L285.92 72.92L285.73 73.17L285.54 73.42L285.35 73.66L211.64 166.4L211.53 166.54L211.43 166.67L211.32 166.8L211.22 166.92L211.11 167.05L211.01 167.16L210.91 167.27L210.81 167.38L210.72 167.49L210.62 167.59L210.53 167.69L210.44 167.78L210.35 167.87L210.26 167.95L210.17 168.04L210.09 168.11L210.01 168.19L209.93 168.26L209.85 168.32L209.77 168.38L209.69 168.44L209.62 168.49L209.55 168.54L209.48 168.59L209.41 168.63L209.35 168.67L209.28 168.7L209.22 168.73L209.16 168.76L209.1 168.78L209.05 168.8L209 168.81L208.95 168.82L208.9 168.83L208.85 168.83L208.8 168.83L208.76 168.82L208.72 168.81L208.68 168.8L208.65 168.78L208.62 168.76L208.6 168.75L208.58 168.73L208.56 168.71L208.54 168.68L208.52 168.66L208.51 168.63L208.49 168.6L208.48 168.57L208.46 168.54L208.45 168.5L208.44 168.47L208.43 168.43L208.42 168.39L208.41 168.34L208.41 168.3L208.4 168.25L208.4 168.2L208.4 168.15L208.4 168.1L208.4 168.04L208.4 167.98L208.4 167.92L208.41 167.86L208.41 167.8L208.42 167.73L208.43 167.67L208.44 167.6L208.45 167.52L208.46 167.45L208.47 167.38L208.49 167.3L208.5 167.22L208.52 167.14L208.54 167.05L208.56 166.97L208.58 166.88L208.61 166.79L208.63 166.7L208.66 166.61L208.73 166.37L208.8 166.13L208.88 165.89L208.97 165.64L209.06 165.38L209.16 165.12L209.27 164.85L209.38 164.57L209.5 164.29L209.62 164.01L209.75 163.73L209.88 163.44L210.02 163.14L210.16 162.85L210.3 162.55L210.45 162.25L210.61 161.95L210.76 161.65L210.92 161.34L211.09 161.04L211.25 160.73L211.42 160.43L211.6 160.12L211.77 159.82L211.95 159.52L212.13 159.22L212.31 158.92L212.49 158.62L212.68 158.33L212.86 158.04L213.05 157.75L213.24 157.47L213.43 157.19L213.62 156.92L213.81 156.65L214 156.38L214.19 156.12L214.38 155.87L214.56 155.62L214.75 155.38L288.46 62.64L288.64 62.41L288.83 62.19L289 61.98L289.17 61.78L289.34 61.6L289.51 61.43L289.66 61.26L289.82 61.11L289.96 60.98L290.11 60.85L290.24 60.73L290.37 60.63L290.5 60.54L290.62 60.46L290.73 60.39L290.84 60.33L290.94 60.28L291.04 60.25L291.13 60.23L291.22 60.21L291.29 60.21L291.37 60.23Z" id="a3TDZh7KH"></path>
	
		<path d="M284.86 132.55L284.98 132.58L285.1 132.63L285.24 132.69L285.37 132.76L285.52 132.85L285.67 132.96L285.83 133.08L286 133.21L286.17 133.36L286.35 133.52L286.54 133.7L286.73 133.89L286.93 134.1L287.14 134.32L332.67 184.72L332.88 184.95L333.09 185.2L333.29 185.45L333.5 185.71L333.71 185.98L333.92 186.25L334.13 186.53L334.33 186.81L334.54 187.11L334.74 187.4L334.94 187.7L335.13 188L335.33 188.31L335.52 188.62L335.71 188.93L335.89 189.24L336.07 189.55L336.25 189.87L336.42 190.18L336.58 190.49L336.74 190.8L336.9 191.11L337.05 191.41L337.19 191.72L337.32 192.02L337.45 192.31L337.58 192.6L337.69 192.89L337.8 193.17L337.89 193.44L337.98 193.71L338.06 193.97L338.13 194.22L338.16 194.32L338.19 194.42L338.21 194.51L338.23 194.61L338.25 194.7L338.27 194.79L338.28 194.87L338.3 194.96L338.31 195.04L338.32 195.12L338.33 195.19L338.34 195.27L338.34 195.34L338.35 195.41L338.35 195.48L338.35 195.54L338.35 195.6L338.34 195.66L338.34 195.72L338.33 195.77L338.32 195.83L338.31 195.88L338.3 195.92L338.29 195.97L338.27 196.01L338.26 196.05L338.24 196.09L338.22 196.12L338.2 196.16L338.17 196.19L338.15 196.22L338.12 196.24L338.1 196.26L338.05 196.29L338.01 196.32L337.96 196.33L337.91 196.35L337.86 196.36L337.8 196.36L337.74 196.36L337.68 196.35L337.62 196.34L337.55 196.32L337.48 196.3L337.41 196.27L337.34 196.24L337.26 196.21L337.18 196.17L337.1 196.12L337.01 196.07L336.92 196.01L336.83 195.95L336.74 195.88L336.65 195.81L336.55 195.74L336.45 195.65L336.35 195.57L336.24 195.48L336.14 195.38L336.03 195.28L335.92 195.17L335.81 195.06L335.69 194.94L335.58 194.82L335.46 194.69L335.34 194.56L289.81 144.16L289.6 143.93L289.4 143.69L289.19 143.43L288.98 143.17L288.77 142.91L288.56 142.63L288.35 142.35L288.15 142.07L287.95 141.78L287.74 141.48L287.54 141.18L287.35 140.88L287.15 140.58L286.96 140.27L286.77 139.96L286.59 139.65L286.41 139.33L286.23 139.02L286.06 138.71L285.9 138.4L285.74 138.09L285.58 137.78L285.43 137.47L285.29 137.17L285.15 136.87L285.03 136.58L284.9 136.29L284.79 136L284.68 135.72L284.58 135.45L284.49 135.18L284.41 134.92L284.34 134.67L284.28 134.43L284.23 134.2L284.19 133.99L284.16 133.8L284.14 133.61L284.13 133.44L284.13 133.29L284.14 133.15L284.16 133.02L284.19 132.91L284.23 132.81L284.28 132.73L284.34 132.66L284.41 132.6L284.48 132.56L284.56 132.54L284.66 132.53L284.76 132.53L284.86 132.55Z" id="c31wGHxZ9y"></path>

		<path d="M333.1 74.42L333.17 74.44L333.23 74.48L333.29 74.52L333.34 74.58L333.38 74.65L333.41 74.73L333.44 74.82L333.46 74.93L333.48 75.04L333.48 75.17L333.48 75.3L333.47 75.45L333.45 75.61L333.43 75.78L333.39 75.96L333.35 76.15L333.3 76.36L333.24 76.57L333.18 76.79L333.1 77.03L333.02 77.26L332.94 77.51L332.84 77.75L332.74 78.01L332.64 78.27L332.52 78.53L332.41 78.8L332.28 79.07L332.15 79.35L332.02 79.63L331.88 79.91L331.74 80.19L331.59 80.48L331.44 80.77L331.28 81.06L331.12 81.35L330.96 81.64L330.79 81.93L330.62 82.23L330.45 82.52L330.27 82.81L330.09 83.1L329.91 83.39L329.72 83.68L329.54 83.96L329.35 84.25L329.16 84.53L328.97 84.81L328.78 85.08L328.58 85.35L328.39 85.62L328.19 85.88L327.99 86.14L327.8 86.39L327.6 86.64L327.4 86.88L327.21 87.11L327.01 87.34L235.61 192.98L235.5 193.11L235.39 193.24L235.28 193.36L235.17 193.48L235.06 193.6L234.95 193.71L234.85 193.82L234.75 193.92L234.65 194.02L234.55 194.12L234.45 194.21L234.35 194.3L234.26 194.38L234.17 194.46L234.08 194.54L233.99 194.61L233.9 194.68L233.82 194.75L233.74 194.81L233.65 194.87L233.58 194.92L233.5 194.97L233.42 195.02L233.35 195.06L233.28 195.1L233.21 195.13L233.14 195.17L233.08 195.19L233.01 195.22L232.95 195.24L232.89 195.25L232.84 195.26L232.78 195.27L232.73 195.28L232.68 195.28L232.63 195.27L232.59 195.27L232.55 195.26L232.5 195.24L232.47 195.22L232.44 195.21L232.41 195.19L232.39 195.17L232.37 195.15L232.35 195.13L232.33 195.1L232.31 195.07L232.29 195.05L232.27 195.01L232.26 194.98L232.25 194.95L232.23 194.91L232.22 194.87L232.21 194.83L232.2 194.79L232.19 194.75L232.19 194.7L232.18 194.65L232.18 194.6L232.18 194.55L232.18 194.5L232.18 194.44L232.18 194.38L232.18 194.32L232.18 194.26L232.19 194.2L232.2 194.13L232.2 194.07L232.21 194L232.22 193.92L232.24 193.85L232.25 193.78L232.27 193.7L232.28 193.62L232.3 193.54L232.32 193.46L232.34 193.37L232.36 193.29L232.39 193.2L232.41 193.11L232.48 192.88L232.55 192.65L232.63 192.41L232.72 192.17L232.81 191.92L232.91 191.67L233.02 191.41L233.13 191.14L233.25 190.88L233.37 190.6L233.5 190.33L233.64 190.05L233.77 189.77L233.92 189.48L234.07 189.2L234.22 188.91L234.37 188.62L234.53 188.33L234.7 188.04L234.87 187.74L235.04 187.45L235.21 187.16L235.39 186.87L235.57 186.58L235.75 186.29L235.93 186L236.12 185.71L236.31 185.43L236.5 185.15L236.69 184.87L236.88 184.6L237.08 184.33L237.27 184.06L237.47 183.8L237.66 183.54L237.86 183.29L238.06 183.04L238.25 182.8L238.45 182.56L238.64 182.33L330.04 76.69L330.24 76.47L330.43 76.26L330.61 76.07L330.79 75.88L330.96 75.7L331.13 75.54L331.3 75.38L331.46 75.24L331.61 75.11L331.76 74.99L331.9 74.88L332.04 74.78L332.18 74.7L332.3 74.62L332.42 74.56L332.54 74.5L332.65 74.46L332.75 74.43L332.84 74.41L332.93 74.4L333.02 74.4L333.1 74.42Z" id="b1UuOMssbv"></path>

		<path d="M298.8 116.17L298.92 116.2L299.04 116.25L299.18 116.31L299.31 116.39L299.46 116.48L299.61 116.58L299.76 116.7L299.93 116.83L300.09 116.97L300.27 117.13L300.44 117.3L300.63 117.48L300.81 117.68L301.01 117.89L301.2 118.12L347.71 171.92L347.91 172.16L348.11 172.4L348.3 172.65L348.5 172.91L348.7 173.18L348.9 173.45L349.09 173.72L349.29 174.01L349.48 174.29L349.67 174.58L349.86 174.88L350.04 175.17L350.22 175.47L350.4 175.78L350.58 176.08L350.75 176.39L350.92 176.69L351.08 177L351.24 177.31L351.4 177.61L351.55 177.92L351.69 178.22L351.83 178.52L351.96 178.82L352.09 179.12L352.21 179.41L352.33 179.7L352.44 179.99L352.54 180.27L352.63 180.54L352.72 180.81L352.8 181.07L352.87 181.33L352.93 181.58L352.98 181.82L353 181.92L353.02 182.01L353.04 182.1L353.05 182.19L353.07 182.28L353.08 182.37L353.09 182.45L353.1 182.53L353.11 182.61L353.11 182.69L353.12 182.76L353.12 182.83L353.12 182.9L353.12 182.97L353.12 183.04L353.11 183.1L353.11 183.16L353.1 183.22L353.09 183.27L353.08 183.33L353.07 183.38L353.06 183.43L353.04 183.47L353.03 183.52L353.01 183.56L352.99 183.6L352.97 183.64L352.95 183.68L352.93 183.71L352.9 183.74L352.88 183.77L352.85 183.79L352.82 183.82L352.79 183.84L352.76 183.86L352.71 183.88L352.67 183.9L352.62 183.92L352.56 183.93L352.51 183.93L352.45 183.93L352.39 183.93L352.32 183.92L352.26 183.91L352.19 183.89L352.12 183.87L352.05 183.84L351.97 183.81L351.9 183.77L351.82 183.73L351.74 183.68L351.65 183.63L351.57 183.58L351.48 183.52L351.39 183.46L351.3 183.39L351.21 183.32L351.11 183.24L351.01 183.16L350.91 183.07L350.81 182.98L350.71 182.88L350.61 182.78L350.5 182.67L350.39 182.56L350.28 182.45L350.17 182.33L350.06 182.21L349.94 182.08L349.83 181.95L303.33 128.14L303.13 127.9L302.93 127.66L302.73 127.41L302.53 127.15L302.34 126.89L302.14 126.62L301.94 126.34L301.75 126.06L301.56 125.77L301.37 125.48L301.18 125.19L301 124.89L300.81 124.59L300.63 124.29L300.46 123.98L300.29 123.68L300.12 123.37L299.95 123.07L299.8 122.76L299.64 122.45L299.49 122.15L299.35 121.84L299.21 121.54L299.07 121.24L298.94 120.95L298.82 120.65L298.71 120.36L298.6 120.08L298.5 119.8L298.4 119.52L298.32 119.25L298.24 118.99L298.17 118.74L298.1 118.49L298.05 118.25L298 118.02L297.97 117.8L297.94 117.59L297.92 117.4L297.92 117.23L297.92 117.06L297.93 116.91L297.95 116.77L297.98 116.65L298.01 116.54L298.06 116.44L298.11 116.36L298.17 116.29L298.24 116.23L298.31 116.19L298.4 116.15L298.49 116.14L298.58 116.13L298.69 116.14L298.8 116.17Z" id="fSGOIRqJO"></path>

		<path d="M314 101.05L314.11 101.08L314.23 101.13L314.35 101.19L314.48 101.26L314.61 101.35L314.75 101.45L314.89 101.57L315.04 101.7L315.2 101.84L315.36 102L315.52 102.18L315.7 102.36L315.87 102.57L316.05 102.78L316.24 103.01L358.53 156.82L358.71 157.06L358.9 157.31L359.09 157.57L359.27 157.84L359.46 158.11L359.64 158.39L359.82 158.68L360.01 158.97L360.18 159.27L360.36 159.57L360.54 159.87L360.71 160.18L360.88 160.49L361.04 160.8L361.21 161.11L361.37 161.43L361.52 161.74L361.67 162.06L361.82 162.38L361.96 162.69L362.1 163L362.23 163.32L362.36 163.62L362.48 163.93L362.6 164.23L362.7 164.53L362.81 164.83L362.9 165.12L362.99 165.4L363.07 165.68L363.15 165.95L363.22 166.21L363.28 166.47L363.33 166.72L363.34 166.82L363.36 166.91L363.38 167.01L363.39 167.1L363.4 167.19L363.41 167.28L363.42 167.37L363.43 167.45L363.44 167.53L363.44 167.61L363.45 167.68L363.45 167.76L363.45 167.83L363.45 167.89L363.44 167.96L363.44 168.02L363.43 168.09L363.43 168.14L363.42 168.2L363.41 168.25L363.4 168.31L363.38 168.36L363.37 168.4L363.35 168.45L363.34 168.49L363.32 168.53L363.3 168.56L363.28 168.6L363.25 168.63L363.23 168.66L363.21 168.69L363.18 168.71L363.15 168.74L363.12 168.76L363.08 168.78L363.03 168.8L362.99 168.81L362.94 168.82L362.88 168.83L362.83 168.83L362.77 168.82L362.71 168.81L362.65 168.8L362.59 168.78L362.52 168.75L362.45 168.73L362.38 168.69L362.31 168.65L362.23 168.61L362.16 168.56L362.08 168.51L362 168.45L361.91 168.38L361.83 168.31L361.74 168.24L361.65 168.16L361.56 168.08L361.47 167.99L361.38 167.9L361.28 167.8L361.18 167.7L361.08 167.59L360.98 167.48L360.88 167.36L360.78 167.24L360.67 167.11L360.56 166.98L360.46 166.84L318.17 113.03L317.98 112.79L317.8 112.54L317.61 112.28L317.42 112.02L317.24 111.74L317.05 111.46L316.87 111.18L316.69 110.89L316.51 110.59L316.33 110.29L316.16 109.99L315.99 109.68L315.82 109.37L315.65 109.06L315.49 108.75L315.33 108.43L315.17 108.12L315.02 107.8L314.88 107.48L314.73 107.17L314.6 106.86L314.46 106.54L314.34 106.24L314.21 105.93L314.1 105.63L313.99 105.33L313.89 105.03L313.79 104.74L313.7 104.46L313.62 104.18L313.54 103.91L313.48 103.65L313.42 103.39L313.37 103.14L313.32 102.91L313.29 102.68L313.27 102.47L313.25 102.28L313.25 102.1L313.25 101.93L313.26 101.78L313.28 101.64L313.31 101.52L313.34 101.41L313.39 101.31L313.44 101.23L313.5 101.16L313.56 101.11L313.64 101.07L313.72 101.04L313.81 101.03L313.9 101.03L314 101.05Z" id="cFlZJEyOn"></path>

		<path d="M321.93 85.93L322.03 85.98L322.15 86.03L322.27 86.11L322.4 86.2L322.54 86.3L322.68 86.42L322.83 86.56L322.99 86.71L323.15 86.88L323.32 87.06L323.49 87.26L323.67 87.47L323.85 87.7L363.91 138.37L364.1 138.61L364.29 138.86L364.48 139.13L364.67 139.4L364.85 139.67L365.04 139.96L365.23 140.25L365.42 140.55L365.6 140.85L365.79 141.16L365.97 141.47L366.15 141.78L366.33 142.1L366.5 142.42L366.67 142.74L366.84 143.06L367 143.39L367.16 143.71L367.31 144.03L367.46 144.35L367.61 144.67L367.75 144.99L367.88 145.31L368.01 145.62L368.13 145.92L368.24 146.22L368.35 146.52L368.45 146.81L368.54 147.09L368.62 147.37L368.7 147.63L368.77 147.89L368.79 148L368.82 148.1L368.84 148.2L368.86 148.3L368.88 148.39L368.9 148.48L368.91 148.57L368.92 148.65L368.94 148.74L368.95 148.82L368.95 148.9L368.96 148.97L368.97 149.05L368.97 149.12L368.97 149.18L368.97 149.25L368.97 149.31L368.97 149.37L368.96 149.43L368.96 149.49L368.95 149.54L368.94 149.59L368.93 149.63L368.92 149.68L368.9 149.72L368.89 149.76L368.87 149.8L368.85 149.83L368.83 149.86L368.81 149.89L368.79 149.92L368.77 149.94L368.73 149.97L368.69 149.99L368.65 150.01L368.6 150.02L368.56 150.03L368.51 150.03L368.45 150.03L368.4 150.02L368.34 150.01L368.28 149.99L368.22 149.96L368.15 149.93L368.08 149.9L368.01 149.86L367.94 149.81L367.86 149.76L367.79 149.71L367.71 149.65L367.62 149.58L367.54 149.51L367.45 149.43L367.36 149.35L367.27 149.26L367.18 149.16L367.09 149.06L366.99 148.96L366.89 148.85L366.79 148.73L366.68 148.61L366.58 148.49L366.47 148.36L366.36 148.22L326.31 97.55L326.12 97.31L325.93 97.06L325.75 96.8L325.56 96.53L325.37 96.25L325.18 95.97L324.99 95.68L324.8 95.38L324.62 95.08L324.43 94.77L324.25 94.46L324.07 94.14L323.89 93.83L323.72 93.51L323.55 93.19L323.38 92.86L323.22 92.54L323.06 92.22L322.91 91.89L322.76 91.57L322.61 91.25L322.47 90.94L322.34 90.62L322.21 90.31L322.09 90.01L321.98 89.7L321.87 89.41L321.77 89.12L321.68 88.84L321.59 88.56L321.52 88.29L321.45 88.03L321.39 87.79L321.34 87.55L321.3 87.34L321.28 87.13L321.26 86.95L321.25 86.78L321.25 86.62L321.26 86.48L321.28 86.35L321.3 86.24L321.34 86.15L321.38 86.07L321.44 86L321.5 85.95L321.57 85.92L321.65 85.9L321.73 85.89L321.82 85.91L321.93 85.93Z" id="apooyGBDs"></path>
	</defs>
	<g>
		<g>
			<use xlink:href="#b6DzDg8Bx4" opacity="1" fill="#142ed8" fill-opacity="1"></use>
			<g>
				<use xlink:href="#b6DzDg8Bx4" opacity="1" fill-opacity="0" stroke="#000000" stroke-width="1" stroke-opacity="0"></use>
			</g>
		</g>
		<g>
			<use xlink:href="#a3TDZh7KH" opacity="1" fill="#000000" fill-opacity="1"></use><g><use xlink:href="#a3TDZh7KH" opacity="1" fill-opacity="0" stroke="#000000" stroke-width="1" stroke-opacity="0"></use></g></g><g><use xlink:href="#c31wGHxZ9y" opacity="1" fill="#000000" fill-opacity="1"></use><g><use xlink:href="#c31wGHxZ9y" opacity="1" fill-opacity="0" stroke="#000000" stroke-width="1" stroke-opacity="0"></use></g></g><g><use xlink:href="#b1UuOMssbv" opacity="1" fill="#000000" fill-opacity="1"></use><g><use xlink:href="#b1UuOMssbv" opacity="1" fill-opacity="0" stroke="#000000" stroke-width="1" stroke-opacity="0"></use></g></g><g><use xlink:href="#fSGOIRqJO" opacity="1" fill="#000000" fill-opacity="1"></use><g><use xlink:href="#fSGOIRqJO" opacity="1" fill-opacity="0" stroke="#000000" stroke-width="1" stroke-opacity="0"></use></g></g><g><use xlink:href="#cFlZJEyOn" opacity="1" fill="#000000" fill-opacity="1"></use><g><use xlink:href="#cFlZJEyOn" opacity="1" fill-opacity="0" stroke="#000000" stroke-width="1" stroke-opacity="0"></use></g></g><g><use xlink:href="#apooyGBDs" opacity="1" fill="#000000" fill-opacity="1"></use><g><use xlink:href="#apooyGBDs" opacity="1" fill-opacity="0" stroke="#000000" stroke-width="1" stroke-opacity="0"></use></g></g></g></svg>